<svg width="396" height="756" viewBox="0 0 396 756" fill="none" xmlns="http://www.w3.org/2000/svg">
<path d="M195.494 172.357C195.494 170.654 195.995 167.449 196.497 165.446V165.346C197.098 163.343 198 161.641 198.502 161.641C199.103 161.641 199.504 164.745 199.504 168.651C199.504 174.96 199.304 175.661 197.499 175.661C195.895 175.661 195.494 174.96 195.494 172.357Z" fill="#ADADAD" fill-opacity="0.9"/>
<path d="M340.861 621.925C340.26 621.624 339.859 619.721 339.859 617.718V617.618C339.859 614.914 340.159 614.313 340.861 615.415C341.362 616.216 341.864 618.119 341.864 619.621C341.864 621.224 341.463 622.225 340.861 621.925Z" fill="#ADADAD" fill-opacity="0.9"/>
<path d="M83.4106 3.60536C84.1124 2.40357 85.4157 1.00149 86.318 0.600893C87.3205 0.200298 137.648 0 198.201 0C258.753 0.100149 309.081 0.300446 310.083 0.500744C311.086 0.701042 312.289 1.60238 312.69 2.40357C313.191 3.20476 314.294 8.6128 315.096 14.4214C315.998 20.2301 317.001 27.1403 317.301 29.9445C317.702 32.6485 319.507 43.765 321.412 54.481C323.316 65.1969 327.327 85.2267 330.334 99.0472C333.342 112.768 336.45 128.191 337.252 133.098C338.154 138.005 339.758 149.522 340.961 158.636C342.866 172.657 343.167 181.069 343.467 213.718C343.668 241.058 343.367 256.181 342.365 265.795C341.663 273.206 340.56 283.121 339.858 287.828C339.257 292.535 337.853 301.047 336.75 306.856C335.648 312.665 333.943 320.276 332.841 323.881C331.738 327.487 330.434 333.295 329.833 336.901C329.231 341.207 329.231 346.715 329.933 353.425C330.434 358.933 331.838 369.048 332.941 375.959C334.044 382.869 336.049 393.184 337.452 398.993C338.755 404.802 340.76 412.012 341.863 415.017C342.866 418.021 344.871 427.035 346.274 435.047C347.678 443.058 349.583 455.477 350.485 462.587C351.788 472.903 352.089 480.113 351.588 497.139C351.287 508.956 350.285 525.18 349.483 533.192C348.58 541.204 346.575 557.629 344.871 569.747C343.167 581.865 341.362 598.289 340.861 606.301C340.159 615.815 340.159 621.123 340.861 621.824C341.362 622.325 341.763 627.332 341.763 632.841C341.663 639.35 342.064 642.956 342.766 643.056C343.367 643.256 343.868 645.059 343.969 647.062C343.969 649.165 344.771 652.77 345.673 654.973C346.575 657.277 350.786 665.088 354.896 672.299C360.109 681.513 364.42 687.622 368.932 692.229C372.441 695.934 374.646 698.438 373.844 697.937C373.042 697.437 373.243 697.637 374.245 698.438C375.348 699.239 379.358 702.845 383.067 706.45C386.877 710.055 390.085 713.661 390.185 714.462C390.386 715.263 391.388 716.665 392.491 717.466C393.594 718.267 394.797 718.868 395.298 718.668C395.699 718.568 396 719.169 396 719.97C396 720.771 395.699 721.472 395.298 721.472C394.797 721.472 394.496 724.777 394.296 735.994L389.885 740C387.378 742.203 381.965 745.708 377.854 747.711C373.744 749.714 368.631 751.517 366.425 751.817C364.22 752.018 360.811 752.919 358.906 753.72C357.002 754.621 354.595 755.623 353.693 755.923C352.691 756.224 349.783 755.623 347.177 754.421C344.47 753.32 339.457 749.514 335.948 746.209C332.44 742.804 327.026 736.895 323.918 732.989C320.71 729.084 317.702 724.377 317.001 722.474C316.299 720.17 313.592 716.966 309.081 713.06C305.371 709.855 301.562 706.65 300.759 706.049C299.957 705.448 298.554 704.046 297.752 703.045C296.649 701.643 295.947 696.034 295.145 680.511C294.544 669.195 293.241 656.075 292.338 651.368C291.135 645.459 290.734 640.752 291.235 635.845C291.636 631.939 291.837 624.528 291.837 619.32C291.737 614.113 290.935 604.599 290.133 598.289C289.23 591.98 287.426 583.167 286.123 578.76C284.719 574.354 282.614 566.041 281.411 560.233C280.107 554.424 277.902 546.312 276.498 542.206C274.994 538.1 271.987 528.586 269.781 521.175C267.475 513.764 265.17 503.849 264.668 499.142C264.067 494.435 263.666 484.119 263.666 476.108C263.666 468.096 264.167 458.682 264.668 455.076C265.27 451.471 265.972 441.556 266.874 417.52L263.265 411.011C261.26 407.405 256.147 397.691 252.036 389.479C246.021 377.461 244.417 373.355 244.116 368.648C243.816 365.543 242.913 361.237 242.111 359.134C241.309 357.131 240.407 352.524 240.106 348.919C239.906 345.313 239.104 336.5 238.302 329.389C237.5 322.279 236.597 315.669 236.297 314.868C235.896 314.067 234.492 307.056 233.089 299.345C231.785 291.633 230.181 283.321 229.58 280.817C228.978 278.314 228.176 274.909 227.875 273.306C227.575 271.704 225.67 265.595 223.565 259.786C221.459 253.977 217.75 243.862 215.444 237.253C213.138 230.643 210.231 221.129 208.928 216.221C207.624 211.314 205.82 204.304 204.917 200.698C204.115 197.093 202.511 189.281 201.509 183.172C200.406 177.063 199.504 169.752 199.504 166.848C199.504 164.044 199.103 161.64 198.501 161.64C197.9 161.64 197.098 163.343 196.496 165.346C195.995 167.449 195.494 170.253 195.494 171.655C195.494 173.057 194.792 178.265 193.99 183.172C193.188 188.079 190.18 199.897 187.473 209.211C184.666 218.525 180.656 230.943 178.35 236.752C176.145 242.56 172.335 253.377 169.829 260.788C167.423 268.299 164.315 280.717 162.911 288.829C161.508 296.841 159.503 307.858 158.4 313.366C157.297 318.874 155.693 330.591 154.891 339.404C153.989 348.217 152.585 358.333 151.783 361.938C150.981 365.543 148.675 372.253 146.67 376.96C144.766 381.667 140.755 389.779 137.748 394.987C134.74 400.195 131.833 405.202 131.231 406.003C130.73 406.805 129.828 408.607 129.226 410.009C128.525 411.612 128.324 416.819 128.725 425.032C129.026 431.942 129.728 442.057 130.329 447.565C130.83 453.073 131.231 466.393 131.231 477.109C131.332 490.629 130.83 498.441 129.828 502.647C129.126 505.952 125.918 516.067 122.91 525.18C119.803 534.294 116.394 544.81 115.291 548.715C114.088 552.621 112.083 559.732 110.679 564.739C109.276 569.747 107.171 578.259 106.068 583.768C104.464 591.579 103.862 599.892 103.261 621.323C102.659 641.453 102.058 650.867 100.754 656.375C99.4511 662.084 99.1504 666.591 99.5514 674.903C99.8522 681.413 99.6516 688.724 98.9499 692.83C97.7468 699.54 97.5463 699.94 92.7342 703.445C90.0273 705.448 85.7165 709.154 83.2101 711.658C80.7038 714.161 77.3954 718.868 75.6911 722.073C74.0871 725.278 69.3752 731.587 65.3651 735.994C61.2547 740.4 56.0415 745.408 53.7357 747.11C51.5301 748.813 48.4223 750.515 46.9185 750.916C45.3144 751.216 42.2066 750.916 39.9008 750.115C37.4947 749.314 33.0835 748.312 30.0759 747.911C27.0684 747.511 21.6547 745.808 18.0456 744.006C14.4365 742.203 9.52405 739.098 7.01772 736.995C4.51139 734.992 2.00506 732.288 1.30329 731.086C0.601519 729.985 0.100253 727.081 0 724.777C0 722.374 0.902278 718.768 1.90481 716.765C3.0076 714.662 9.82481 706.65 17.2435 698.939C24.562 691.227 32.1813 682.715 34.1863 679.91C36.1914 677.206 40.001 671.097 42.8081 666.39C45.5149 661.683 48.5225 655.975 49.4248 653.671C50.3271 651.268 51.7306 644.758 52.5327 639.15C53.3347 633.441 54.237 622.926 54.638 615.815C54.9387 607.403 54.638 597.388 53.7357 587.773C52.9337 579.561 50.9286 562.636 49.2243 550.218C47.6203 537.799 45.7154 521.976 45.2142 514.965C44.6127 507.855 44.1114 494.335 44.1114 484.921C44.1114 475.006 44.8132 463.088 45.6152 457.079C46.5175 451.271 48.2218 440.655 49.6253 433.544C51.0289 426.434 53.2344 416.719 54.638 412.012C56.0415 407.305 58.0466 398.793 59.2496 392.984C60.3524 387.175 61.9565 377.962 62.7585 372.453C63.5605 366.945 64.4628 355.228 64.8638 346.415C65.3651 331.793 65.2648 329.69 63.2597 322.379C62.0567 317.973 60.1519 310.061 59.0491 304.853C57.9463 299.645 56.242 288.128 55.1392 279.315C54.0365 270.502 52.7332 253.377 52.1316 241.259C51.4299 226.236 51.4299 211.715 52.2319 195.691C52.7332 182.772 54.1367 165.145 55.2395 156.633C56.3423 148.12 58.1468 136.403 59.1494 130.594C60.2522 124.785 62.2572 114.27 63.6608 107.059C65.0643 99.8484 67.3701 89.3328 68.6734 83.5241C70.077 77.7155 73.6861 57.886 76.6937 39.4586C79.8015 21.0313 82.8091 4.90729 83.4106 3.60536Z" fill="#0B0B0B"/>
<path d="M99.1506 3.90591C99.8524 3.40516 104.765 2.60397 110.078 2.30353C115.392 2.00308 157.197 1.90293 203.013 2.10323C248.829 2.30353 288.629 2.70412 291.536 2.90442C294.344 3.20487 296.95 3.90591 297.251 4.40665C297.552 5.00755 293.341 7.71156 288.028 10.4156C282.614 13.2198 276.097 17.0254 273.491 18.9282C270.784 20.8311 265.17 26.4394 260.959 31.3467C256.648 36.254 251.235 43.5648 248.929 47.671C246.523 51.6769 241.209 64.3958 237.099 76.0131C232.888 87.6303 228.377 99.2476 227.074 102.052C225.77 104.756 223.866 109.262 222.763 112.067C221.66 114.771 219.454 119.778 217.85 123.083C216.146 126.388 213.539 130.594 211.935 132.497C210.331 134.3 207.925 136.403 206.522 137.104C205.118 137.805 202.311 138.606 200.306 139.007C198.201 139.307 194.692 139.207 192.486 138.606C189.98 138.005 187.173 136.203 184.967 133.899C182.962 131.796 178.451 124.285 174.942 117.074C171.433 109.863 166.42 97.7454 163.814 90.0339C161.308 82.3224 157.398 71.5064 155.192 65.9982C152.987 60.49 150.28 54.1806 149.177 51.9773C147.974 49.7741 145.367 45.4677 143.362 42.4632C141.257 39.4587 137.147 34.251 134.339 30.9461C131.432 27.6412 126.219 22.7339 122.911 20.0299C119.502 17.426 114.088 13.7205 110.78 11.8177C107.472 10.015 103.963 8.41261 103.06 8.41261C102.058 8.41261 101.256 8.01201 101.256 7.41112C101.256 6.81023 100.855 6.60993 100.253 6.91037C99.7521 7.21082 98.9501 6.81023 98.6493 6.20933C98.3486 5.50829 98.5491 4.40665 99.1506 3.90591Z" fill="white"/>
<path d="M85.1152 19.7294C85.7167 15.1226 86.7192 10.5157 87.3207 9.31395C88.223 7.81171 89.1253 7.41112 90.8296 7.81171C92.1329 8.11216 99.4514 11.4171 106.97 15.1226C118.299 20.7309 121.808 23.0343 126.82 27.9416C130.129 31.3467 135.041 37.1553 137.848 40.961C140.555 44.8668 144.465 51.7771 146.47 56.484C148.475 61.191 152.285 70.8053 154.791 78.016L154.792 78.0175C157.398 85.2282 161.308 96.0432 163.613 102.052C165.819 108.061 168.225 113.369 168.827 113.769C169.428 114.27 169.528 114.57 168.927 114.57C168.258 114.57 168.258 114.837 168.927 115.372C169.528 115.772 172.235 120.78 175.143 126.588C179.153 134.901 181.057 137.605 184.165 139.708C186.271 141.11 188.777 142.512 189.779 142.912C191.283 143.513 191.484 145.116 191.484 156.433C191.484 163.443 190.782 173.658 189.98 179.166C189.178 184.675 187.073 193.888 185.469 199.697C183.865 205.506 180.656 215.42 178.451 221.73C176.145 228.039 172.636 238.655 170.431 245.265C168.325 251.874 165.618 260.187 164.415 263.792C163.212 267.397 161.207 274.809 159.904 280.317C158.5 285.825 156.094 297.743 154.39 306.856C152.686 315.97 150.681 326.285 149.879 329.89C149.077 333.496 147.473 338.804 146.37 341.708C145.267 344.512 144.365 348.017 144.365 349.419C144.365 350.821 143.663 352.624 142.861 353.425C142.059 354.227 141.558 355.128 141.858 355.428C142.159 355.729 141.457 357.732 140.355 359.935C139.252 362.138 137.648 364.141 136.846 364.442C136.044 364.742 135.542 365.343 135.843 365.944C136.144 366.545 134.44 368.247 132.134 369.95C128.224 372.654 127.221 372.854 120.805 372.554C116.394 372.353 110.279 371.152 104.264 369.149C99.0504 367.446 92.8347 364.642 90.5288 362.939C88.1228 361.337 84.7141 357.531 82.9096 354.727C81.0048 351.823 77.4959 344.913 74.9896 339.405C72.4833 333.896 69.0747 324.883 67.4706 319.375C65.7663 313.867 63.9617 306.456 63.26 302.85C62.6585 299.245 61.7562 294.137 61.2549 291.333C60.7536 288.629 59.7511 281.118 59.1496 274.809C58.5481 268.499 57.5455 253.377 57.0443 241.259C56.4428 226.837 56.4428 211.615 57.1445 197.193C57.6458 185.075 58.5481 171.755 59.0493 167.649C59.6509 163.543 60.3526 156.733 60.6534 152.627C60.9542 148.521 61.9567 141.711 62.859 137.605C63.661 133.499 64.9643 127.189 65.6661 123.584C66.3678 119.978 67.2701 114.57 67.5709 111.566C67.9719 108.561 69.5759 98.847 71.18 90.0339C72.8843 81.2208 74.6888 73.2089 75.1901 72.3076C75.7916 71.3061 75.8919 69.7037 75.4909 68.8024C75.1901 67.7007 75.2904 67.3001 75.7916 67.8009C76.2929 68.3016 77.3957 65.4974 78.3982 61.2912C79.4007 57.2852 80.6038 48.9729 81.2053 42.964C81.8068 36.955 82.6088 31.0462 83.1101 29.9446C83.6114 28.843 84.5136 24.2361 85.1152 19.7294Z" fill="white"/>
<path d="M269.481 27.3407C274.293 22.7339 278.905 19.9297 290.033 14.4215C297.852 10.6159 305.071 7.51127 306.073 7.41112C307.076 7.41112 308.379 8.8132 309.382 11.2168C310.284 13.2198 311.186 18.3273 311.487 22.4334C311.788 26.5395 312.389 30.4454 312.79 30.9461C313.191 31.4468 313.793 36.254 314.194 41.4617C314.595 46.9699 317.201 61.0909 320.409 75.0116C323.417 88.2312 325.923 99.7483 326.023 100.55C326.023 101.351 326.525 102.653 326.926 103.354C327.427 103.955 327.628 105.257 327.327 106.058C327.026 106.859 327.327 107.76 327.828 108.061C328.43 108.361 328.63 109.262 328.329 110.064C328.029 110.865 328.329 114.37 328.931 117.875C329.532 121.28 330.435 124.585 330.936 125.086C331.337 125.587 331.738 126.989 331.838 128.09C331.838 129.192 332.039 131.596 332.139 133.398C332.239 135.101 332.841 136.603 333.342 136.603C333.944 136.603 334.044 137.705 333.643 139.608C333.141 141.41 333.242 142.612 333.843 142.612C334.445 142.612 334.746 143.814 334.746 145.416C334.645 146.918 334.846 148.821 335.147 149.622C335.447 150.424 335.748 152.226 335.748 153.628C335.748 155.031 336.049 157.735 336.249 159.637C336.45 161.54 337.252 172.356 337.853 183.673C338.555 196.192 338.856 217.123 338.455 237.253C338.154 258.785 337.452 274.107 336.45 281.318C335.548 287.427 333.944 296.841 332.841 302.349C331.638 307.858 330.034 315.068 329.131 318.373C328.329 321.678 327.227 325.284 326.826 326.385C326.425 327.487 326.023 328.789 326.023 329.39C326.023 329.991 325.622 330.591 325.021 330.892C324.52 331.192 322.114 335.999 319.708 341.708C317.301 347.316 314.996 351.923 314.595 351.923C314.093 351.923 313.993 352.324 314.294 352.925C314.595 353.525 313.893 354.827 312.79 355.929C311.687 357.031 310.986 358.032 311.286 358.232C311.587 358.333 310.184 359.935 308.078 361.838C305.973 363.741 302.665 365.944 300.76 366.745C298.855 367.546 296.349 368.348 295.246 368.448C294.143 368.548 289.832 369.649 285.722 370.851C281.611 372.053 276.398 372.954 274.193 372.954C271.787 372.854 268.278 371.853 265.37 370.15C262.162 368.448 259.255 365.643 257.15 362.439C255.345 359.735 252.237 352.324 250.232 346.215C248.227 340.005 244.818 325.284 242.613 313.666C240.508 301.949 236.197 282.921 233.189 271.303C229.981 258.985 224.467 241.759 219.956 229.742C215.745 218.425 211.234 204.905 209.83 199.697C208.527 194.489 206.923 186.277 206.221 181.37C205.519 176.562 204.717 172.657 204.316 172.657C203.815 172.657 203.514 166.447 203.514 158.836C203.514 151.325 203.915 144.615 204.316 144.014C204.717 143.513 206.421 142.512 208.026 141.811C209.73 141.21 212.437 139.207 214.241 137.404C215.946 135.602 218.953 131.195 220.858 127.59C222.863 123.984 226.071 116.573 228.176 111.065C230.181 105.557 232.287 99.9486 232.788 98.5466C233.289 97.1445 233.69 95.8425 233.59 95.5421C233.49 95.2416 233.791 94.841 234.392 94.5406C234.893 94.2402 237.199 88.6318 239.605 82.022C241.911 75.4122 245.119 66.6992 246.723 62.7934C248.327 58.7875 250.834 53.5797 252.237 51.2763C253.741 48.8727 254.944 46.4692 255.044 45.8683C255.145 45.2674 256.949 42.1628 259.155 38.958C261.36 35.7532 265.972 30.5455 269.481 27.3407Z" fill="white"/>
<path d="M67.2701 369.95C68.4731 360.336 69.8767 351.823 70.4782 351.122C71.0797 350.421 71.982 350.02 72.5835 350.221C73.185 350.421 74.7891 352.624 76.1926 355.128C77.5962 357.732 80.5035 361.638 82.7091 363.941C84.9147 366.144 90.1278 369.75 94.2382 371.853C99.4514 374.557 104.163 376.059 109.777 376.96C114.189 377.561 120.104 377.862 122.81 377.561C125.617 377.161 129.628 375.859 131.733 374.657C133.938 373.455 137.748 369.95 140.254 366.945C142.66 363.941 145.367 361.337 146.069 361.137C146.971 361.037 147.172 361.638 146.771 363.14C146.37 364.442 144.866 369.449 143.262 374.457C141.658 379.564 138.149 387.176 135.242 391.983C132.435 396.69 129.728 400.595 129.227 400.696C128.725 400.896 126.921 403.099 125.216 405.703C123.612 408.407 120.304 412.113 117.998 414.015C115.692 415.918 111.682 418.322 109.076 419.223C106.369 420.225 102.459 421.026 100.253 421.026C98.0478 421.026 94.539 420.325 92.5339 419.524C89.8271 418.522 87.421 416.319 84.3131 411.812C81.9071 408.307 78.4985 404.001 76.7942 402.198C75.0899 400.295 71.7815 397.491 69.4757 395.888C66.1673 393.685 65.1648 392.383 65.1648 390.18C65.1648 388.678 66.1673 379.564 67.2701 369.95Z" fill="white"/>
<path d="M321.312 353.125C321.312 352.724 321.713 351.823 322.114 351.122C322.515 350.521 323.417 349.92 323.918 349.92C324.52 349.92 325.221 352.023 325.522 354.627C325.823 357.331 326.525 361.237 327.026 363.44C327.628 365.643 328.229 370.35 328.53 373.956C328.73 377.561 329.332 381.367 329.933 382.469C330.535 383.57 330.836 386.474 330.635 388.978C330.334 393.084 330.034 393.685 326.324 395.488C323.818 396.79 320.209 400.295 316.7 405.102C313.492 409.108 311.186 412.814 311.387 413.214C311.587 413.715 310.384 415.117 308.78 416.519C307.176 417.921 303.868 419.524 301.562 420.124C298.454 420.826 295.847 420.826 292.539 420.124C289.832 419.524 285.621 417.921 283.015 416.619C280.308 415.317 276.398 412.513 274.193 410.31C271.987 408.207 268.077 403.299 265.571 399.394C263.065 395.588 258.653 387.576 255.846 381.467C253.039 375.358 250.132 368.348 249.43 365.744C248.728 363.14 248.528 360.736 249.029 360.235C249.43 359.835 250.633 360.536 251.535 361.938C252.438 363.34 254.944 366.445 257.15 368.748C259.355 371.152 262.764 374.156 264.669 375.258C267.676 377.06 269.581 377.361 277.2 377.261C283.817 377.161 288.328 376.46 294.243 374.557C298.654 373.155 304.67 370.651 307.577 368.948C311.086 366.845 314.093 364.041 317.101 359.835C319.407 356.53 321.312 353.425 321.312 353.125Z" fill="white"/>
<path d="M60.489 409.593C62.1365 404.558 63.5688 400.181 63.8615 399.694C64.062 399.294 65.0645 398.993 65.9668 398.993C66.8691 398.993 68.8742 400.195 70.2777 401.697C71.7815 403.299 75.3906 407.806 78.298 411.912C81.3055 416.018 85.7167 420.725 88.223 422.428C91.7319 424.831 94.0377 425.532 98.7496 425.833C103.261 426.133 106.168 425.633 110.279 424.03C113.286 422.828 116.996 421.026 118.6 419.924C120.104 418.923 121.607 418.021 122.109 418.021C122.51 418.021 123.412 423.73 124.114 430.74C124.815 437.851 125.918 448.467 126.52 454.576C127.121 460.685 127.623 471.901 127.623 479.613C127.522 491.33 127.121 495.136 125.016 503.148C123.612 508.356 121.307 515.767 119.803 519.672C118.399 523.578 116.093 529.787 114.69 533.693C113.387 537.599 110.88 546.312 109.176 553.222C107.472 560.133 104.765 572.251 103.06 580.262C101.356 588.274 99.4514 600.693 98.8498 607.803C98.1481 614.914 97.1455 621.724 96.544 622.826C95.9425 623.927 93.0352 626.431 90.1278 628.334C85.3157 631.539 84.1126 631.839 78.1977 631.739C74.5886 631.639 69.7764 631.038 67.4706 630.437C64.9643 629.836 62.7587 628.534 62.1572 627.332C61.6559 626.231 60.4529 616.016 59.6509 604.498C58.7486 593.081 57.345 578.36 56.543 571.75C55.741 565.14 53.7359 548.716 52.1319 535.195C50.5278 521.675 48.7233 506.152 48.222 500.644C47.5202 494.134 47.5202 486.223 48.222 478.111C48.7233 471.2 49.8261 460.384 50.6281 454.075C51.4301 447.766 53.2347 437.35 54.7385 431.041C56.142 424.731 58.6483 415.217 60.3526 410.009L60.489 409.593Z" fill="white"/>
<path d="M322.715 405.102C324.62 402.699 327.126 400.395 328.229 399.894C329.432 399.494 330.836 399.093 331.337 399.093C331.938 398.993 332.339 399.394 332.139 399.995C331.938 400.495 332.339 400.996 332.841 400.996C333.442 400.996 334.445 403.4 335.046 406.204C335.748 409.108 336.249 412.213 336.149 413.014C336.049 413.815 337.352 419.924 338.956 426.534C340.66 433.144 342.866 444.461 343.969 451.571C344.971 458.682 345.874 466.293 345.874 468.296C345.874 471 346.174 471.901 347.077 471.301C347.979 470.8 348.079 475.006 347.478 489.628C347.077 500.043 346.375 513.163 345.874 518.671C345.372 524.179 344.47 533.894 343.869 540.203C343.367 546.512 341.964 556.727 340.861 562.736C339.758 568.745 338.455 578.46 337.954 584.268C337.352 590.077 336.65 599.491 336.249 605.3C335.949 611.108 335.046 619.421 334.244 623.827C333.442 628.234 332.239 632.44 331.537 633.041C330.836 633.742 327.227 634.743 323.317 635.144C318.605 635.745 314.695 635.645 311.286 634.844C308.579 634.243 304.77 632.941 303.066 632.039C301.261 631.138 299.356 629.536 298.855 628.534C298.454 627.633 297.752 621.824 297.351 615.815C296.95 609.806 295.747 600.392 294.644 594.984C293.642 589.676 292.739 583.868 292.739 582.265C292.739 580.663 292.038 576.457 291.236 572.952C290.434 569.547 285.02 552.121 279.205 534.194C268.679 502.146 268.478 501.445 267.877 489.628C267.576 483.018 267.275 476.008 267.275 474.105C267.275 472.202 267.877 467.194 268.478 463.088C269.08 458.982 270.283 447.465 271.285 437.55C272.188 427.636 273.09 419.223 273.29 418.722C273.491 418.322 276.097 419.323 279.005 420.926C281.812 422.528 286.724 424.631 289.732 425.533C294.243 426.834 296.048 426.935 299.757 425.933C302.264 425.332 306.474 423.229 309.181 421.126C311.988 419.123 315.296 415.718 316.7 413.515C318.204 411.311 320.81 407.506 322.715 405.102Z" fill="white"/>
<path d="M78.1977 635.745C85.4159 635.745 87.5212 635.244 91.7319 633.041C94.539 631.639 97.0453 630.437 97.5466 630.337C97.9476 630.337 98.5491 631.138 98.9501 632.039C99.2509 633.041 98.5491 640.151 97.2458 647.863C95.341 659.881 95.0402 663.987 95.6417 676.105C96.2433 690.226 96.2433 690.426 93.7369 693.931C92.3334 695.834 90.9298 697.236 90.5288 696.936C90.0276 696.736 88.7243 697.837 87.5212 699.44C86.2179 701.142 84.9147 702.244 84.5136 701.943C84.0124 701.743 82.2078 703.045 80.5035 704.948C78.699 706.851 77.1952 708.653 77.1952 708.954C77.1952 709.254 76.0924 711.858 74.6888 714.662C73.0848 718.268 68.3729 724.076 60.1521 732.489C53.5354 739.399 48.1217 744.707 48.1217 744.206C48.1217 743.805 47.2195 744.406 46.1167 745.508C44.4124 747.211 43.7106 747.311 40.9035 746.409C39.099 745.808 34.5876 744.406 30.8782 743.405C27.0686 742.403 21.8554 740.4 19.0483 738.998C16.3415 737.596 12.4316 734.792 10.5268 732.689C8.52175 730.686 7.01795 728.683 7.01795 728.182C7.01795 727.782 6.31618 726.78 5.51415 725.979C4.31111 724.777 4.21086 723.776 4.91263 721.172C5.51415 719.169 10.8276 712.759 19.2488 703.846C28.0711 694.632 35.8909 685.018 42.2068 675.804C47.5202 668.193 52.6331 660.281 53.6357 658.379C54.6382 656.476 56.142 651.268 57.1445 646.861C58.0468 642.455 59.3501 637.848 59.9516 636.546C61.0544 634.543 61.6559 634.443 65.4655 635.044C67.7714 635.545 73.4858 635.845 78.1977 635.745Z" fill="white"/>
<path d="M296.649 644.358C296.048 639.45 296.048 636.446 296.649 635.645C297.451 634.844 298.755 635.144 301.963 636.847C305.873 639.05 307.477 639.25 320.309 639.25C330.735 639.25 334.545 639.651 334.946 640.552C335.347 641.253 336.55 645.359 337.753 649.565C338.856 653.872 341.062 659.781 342.465 662.585C343.969 665.489 347.377 671.498 350.185 675.905C352.891 680.311 355.799 684.618 356.5 685.419C357.303 686.22 359.709 689.124 361.814 691.928C363.919 694.632 370.335 701.943 375.95 707.952C381.664 713.961 387.378 720.671 388.682 722.674C389.885 724.777 390.988 727.581 390.988 728.983C390.988 730.686 389.384 732.989 386.276 735.994C383.569 738.498 378.757 741.903 375.448 743.505C372.14 745.107 367.428 746.71 364.922 747.11C362.415 747.411 359.408 748.412 358.205 749.113C356.901 749.915 354.395 750.515 352.691 750.515C349.784 750.515 347.778 748.813 336.851 737.696C329.933 730.686 323.617 723.575 322.815 721.973C322.013 720.271 319.708 716.465 317.703 713.46C315.697 710.456 311.888 706.049 309.181 703.646C306.474 701.342 303.968 699.339 303.567 699.44C303.066 699.44 302.364 697.937 301.863 696.135C301.361 694.432 300.659 685.018 300.459 675.404C300.158 665.489 299.456 656.576 298.855 654.873C298.153 653.171 297.251 648.464 296.649 644.358Z" fill="white"/>
</svg>
