<svg width="1354" height="753" viewBox="0 0 1354 753" fill="none" xmlns="http://www.w3.org/2000/svg">
<path d="M0 753V376.5V0H1354V753H0Z" fill="white"/>
<path d="M437.6 554.9C449.1 548.5 472.4 535.8 489.5 526.7C506.6 517.6 521.3 510.1 522.3 510C523.9 510 524 511.7 524 531C524 549 523.8 552 522.5 552C521.7 552 515.4 549.3 508.5 546C501.6 542.7 495.9 540 495.8 540C495.6 539.9 492.6 541.6 482.5 547.5L482 567L487.7 569.6C490.9 571.1 499.8 574.9 507.5 578.2C515.2 581.5 522.9 584.7 524.5 585.5C526.1 586.2 536.5 590.5 547.5 595.1C558.5 599.6 567.6 603.4 567.8 603.4C567.9 603.5 568.5 606.9 569 611C569.5 615.1 570.9 622.2 572 626.7C573.1 631.3 574 635.5 574 636C574 636.5 564.2 633.2 552.3 628.7C540.3 624.1 524.2 617.6 516.5 614.2C508.8 610.9 492.1 603.5 479.5 597.8C466.9 592.1 447.4 583.1 436.3 577.9C425.2 572.7 416.2 568 416.4 567.5C416.5 567 426.1 561.3 437.6 554.9Z" fill="#D1D1D1"/>
<path d="M940 454V444.5V435L944.7 436.9C947.4 438 951.4 439.7 953.7 440.7C956.1 441.7 958 442.9 958 443.5C958 444.1 954 446.6 940 454Z" fill="#D1D1D1"/>
<path d="M914 449C914.6 449 915 442.5 915 431.5V414L918.8 415.5C920.8 416.4 922.6 417 922.7 417C922.9 417 923 429.1 923 444C923 461.3 922.6 471 922 471C921.5 471 919.6 470.3 918 469.5C915.1 468 915 467.8 915 461C915 456.7 914.6 454.2 914 454.5C913.4 454.8 913 453.7 913 452C913 450.4 913.5 449 914 449Z" fill="#A3A0A0"/>
<path d="M845.6 424C848 419.9 851.2 413 852.7 408.8V408.7C854.5 403.6 855.9 401 857 401C857.8 401 863.9 403.4 870.5 406.3C877.1 409.3 889.4 414.5 913.1 424.5L912.5 467.5L907.5 470.8C904.7 472.6 896.4 477.7 889 482.2C881.6 486.6 875.4 490.3 875.4 490.4C875.3 490.5 874.9 495 873.9 510.5L884.5 514.7L903.5 504.3C914 498.6 925.6 492.1 929.5 490C933.3 487.9 945 481.4 955.5 475.6C966 469.7 975.3 464.7 976.2 464.5C977.7 464.1 978 462.9 978 458C978 454.7 978.4 452 979 452C979.5 452 995.2 458.1 1013.7 465.6C1032.3 473.1 1048.1 479.4 1048.7 479.6C1049.4 479.8 1050 480.3 1050 480.7C1050.1 481.2 1042.5 486.5 1033.3 492.6C1024.1 498.7 1010.2 507.3 1002.5 511.7C994.8 516.2 981.7 523.6 973.5 528.2C965.2 532.8 953.3 539.7 935.5 550.2L929.5 547.9C926.2 546.7 909.1 539.6 891.5 532.2C873.9 524.8 852.5 515.9 828.5 506.1L824 508.5C821.5 509.7 808.5 517.2 795 525C781.5 532.9 764.4 543.1 757 547.8C749.6 552.4 734 561.7 722.5 568.3C711 574.9 692.7 585.6 682 592C671.3 598.5 654.6 608 645 613.2C635.4 618.5 625.1 624.2 622.2 625.9C619.4 627.6 616.7 629 616.2 629C615.8 629 615.8 627.3 616.2 625.3C616.6 623.2 617.1 620.4 617.4 619C617.6 617.6 618.3 612.5 618.9 607.5C619.4 602.5 620.2 593.3 620.5 587C621 578.8 620.7 572.1 618 552L623.5 546C627.8 541.3 629 539.3 629 536.7C629 535 630.1 523.4 631.5 511C632.9 498.6 634.2 487.6 634.5 486.5C634.8 485.1 640.2 481.6 652.1 475C661.6 469.8 672.8 463.7 676.9 461.4C681.1 459.2 699.799 448.5 718.499 437.801L718.5 437.8C737.2 427.1 755.2 416.7 764.5 411.2L770.5 416.9C773.8 420 782.7 426.8 790.3 432C797.8 437.2 806.4 443 809.3 444.8C812.1 446.6 815.3 448 816.2 448C817.2 448 820.8 446.6 824.2 444.8C827.7 443.1 832.9 439.4 835.9 436.6C838.8 433.8 843.2 428.1 845.6 424Z" fill="#D1D1D1"/>
<path d="M859.4 385.5C859.6 384.4 859.8 382.7 859.9 381.8V381.7C859.9 380.8 860.3 380 860.7 380C861 380 862.6 382.4 864 385.2C865.5 388.1 868 391.9 869.6 393.5C871.2 395.2 873.6 397 875 397.7C876.4 398.3 880.5 400 884.3 401.4C888 402.8 892.9 404.9 895.3 405.9C897.6 406.9 902.4 408.9 912.5 412.8L913 418.4C913.3 421.5 913.3 424 913 424C912.7 424 906.4 421.5 899 418.5C891.6 415.4 879.4 410.3 872 407.1C864.6 403.8 857.7 400.9 856.8 400.6C855.6 400.2 855.3 399.567 855.9 398.7C856.4 398.1 857.3 395.2 857.9 392.5C858.6 389.7 859.2 386.6 859.4 385.5Z" fill="white"/>
<path d="M814.5 361.9C818.3 359.5 826.6 354.3 833 350.4C839.3 346.4 844.6 343.2 844.7 343.1C844.8 343 843.8 345.1 842.5 347.8C841.2 350.4 837.5 356.6 834.3 361.5C831.1 366.5 827.4 371.4 826.3 372.5C825.1 373.6 821 376.4 817.1 378.8C813.2 381.1 809.3 382.9 808.4 382.8C807.1 382.5 806.7 381 806.6 374.3C806.6 369.8 806.7 366.2 807 366.3C807.3 366.3 810.6 364.4 814.5 361.9Z" fill="#B03737"/>
<path d="M741.5 313.6C743.7 312.3 746.1 310.5 746.9 309.6C748.2 308.1 748.6 308.2 751.4 310.4C753.1 311.7 756 313.4 761 315.5L755.5 322.3L747 321.5C742.3 321.1 736.7 321.1 734.5 321.4C732.3 321.7 729.5 322.9 728.3 324C727 325.1 726 326.3 726 326.7C726 327.2 729 327.3 732.8 327.1C739.2 326.8 739.9 326.9 749.3 331.9C754.6 334.7 759.9 337 761 337C762.1 337 763.7 338.1 764.5 339.5C765.6 341.4 765.7 342 764.8 342.1C764.1 342.1 762.8 342.3 762 342.5C761.2 342.8 758 343.6 755 344.3C752 345 744.3 345.8 738 345.9C730 346 724.7 345.6 720.5 344.5C717.2 343.6 712.3 341.7 709.5 340.4C706.8 339 702.7 336.2 700.6 334.2C698.5 332.2 697 331.1 697.4 331.7C697.7 332.4 697.8 333 697.5 333C697.2 333 695.9 331.1 694.5 328.7C693.2 326.4 692 323.1 692 321.5C692 319.8 692.7 317.8 693.7 316.9C694.7 316 696.6 314.9 698 314.5C699.4 314 701.6 313.5 703 313.3C704.4 313.1 710.2 312.8 716 312.6C724.4 312.3 727.6 312.6 737.5 316L741.5 313.6Z" fill="white"/>
<path d="M811.8 310.1C811.7 308.7 812.5 306.8 813.5 305.8C814.5 304.8 815.6 304 815.9 304C816.2 304 823 306.7 845.5 316.2L844.5 319.1C843.8 321.1 843.9 323.1 844.6 325.7C845.3 327.8 846.4 330.9 847.1 332.5C848.1 335.1 848.1 336 846.4 339.5C844.8 343 842.4 344.8 828.5 353.2C819.7 358.6 811.3 363.9 809.7 365C807.7 366.5 806.8 366.7 806.2 365.7C805.8 365.1 804.6 362.8 803.5 360.6C802.4 358.5 799.7 355.5 797.5 354C795.3 352.5 792.1 350.9 790.5 350.5C788.9 350 787.3 349.6 787 349.5C786.7 349.4 784.2 349 781.5 348.5C777.9 347.8 775.1 346.4 771.2 343.3C767.7 340.4 766 338.3 766 336.7C766 335.5 767.1 333 768.3 331.1C769.5 329.2 772.5 326.4 775 324.7C777.5 323.1 780.9 321.1 782.5 320.2C784.4 319.2 789.3 318.4 796.2 318.1C805.8 317.6 807.1 317.3 809.4 315C811.1 313.5 812 311.6 811.8 310.1Z" fill="#ED4A4A"/>
<path d="M747.1 301.8C746.5 301.3 746 300.6 746 300C746 299.4 746.3 299 746.8 299C747.2 299 748 299.4 748.5 299.9C749 300.5 754.5 303 760.5 305.5C767.7 308.5 772.4 310 774 309.6C775.4 309.3 780.8 306.8 786 304C791.2 301.3 796 299 796.5 299.1C797 299.1 796.9 299.3 796.3 299.6C795.6 299.8 795.2 300.9 795.5 302C795.9 303.6 796.8 304 799.8 304C801.8 304 804.6 304.6 805.9 305.3C807.2 305.9 808.7 307.5 809.1 308.8C809.8 310.5 809.5 311.5 807.9 313.3C806.1 315.3 804.8 315.5 796.7 315.6C789 315.6 786.6 316 782 318.2C779 319.6 774.6 322.2 772.3 323.9C769.9 325.6 767.1 328.5 766 330.3C764.9 332 764 334.5 764 335.8C764 337.9 763.8 337.9 760.3 336.9C758.2 336.3 752.7 333.8 748 331.2C739.9 326.9 739.2 326.7 732.8 327.1C729 327.3 726 327.2 726 326.8C726 326.3 727 325.1 728.2 324C729.5 322.9 732.3 321.7 734.5 321.4C736.7 321.1 742.3 321.1 755.5 322.3L761 315.5L757.7 314.1C756 313.4 753.1 311.7 751.5 310.4C749.9 309.1 748.3 308.2 748 308.4C747.7 308.6 747.7 307.4 747.9 305.7C748.1 303.9 747.8 302.2 747.1 301.8Z" fill="#D1D1D1"/>
<path d="M802.2 302C799.3 302 799.1 301.8 800.1 300C800.9 298.4 801.8 298.1 803.3 298.6C804.5 299 807.4 300.1 809.7 301.1C813.5 302.8 813.8 303.2 812.5 304.5C811.2 305.8 810.7 305.8 808.2 304C806.7 302.8 804 301.9 802.2 302Z" fill="#D1D1D1"/>
<path d="M844 299.5C844.5 299.8 845 299.2 845 298.3V298.2C845 296.8 845.3 296.8 847 298.7C848.1 300 848.9 301.2 848.8 301.5C848.6 301.8 847.3 301.6 845.8 301C844.2 300.5 843 299.8 843 299.5C843 299.2 843.5 299.2 844 299.5Z" fill="#ED4A4A"/>
<path d="M968.5 296.9C972.4 295.1 978 293 981 292.4C984 291.7 988.6 291.2 991.2 291.1C994.9 291 996 291.4 996 292.5C996 293.3 995 294.2 993.7 294.4C992.5 294.7 988.5 295.1 984.7 295.4C980.5 295.8 975.7 297 971.8 298.8C968.3 300.4 963 303.7 960 306.2C957 308.6 952.2 313.8 949.3 317.6C946.4 321.4 942.1 328.1 939.6 332.5C937.2 336.9 933.6 344.9 931.6 350.3C929.6 355.6 927.3 364.2 926.4 369.3C925.3 375.8 925 380.8 925.5 386.5C925.9 390.9 927.1 397.2 928.1 400.5C929.2 403.8 931.7 409.4 933.6 413C935.5 416.6 936.8 419.7 936.5 420C936.3 420.3 935.5 420.2 934.8 419.9C934.1 419.6 931.9 416.2 929.8 412.4C927.8 408.6 925.5 403 924.6 400C923.7 397 922.7 390.5 922.3 385.5C921.9 379.1 922.2 373.9 923.5 367.5C924.4 362.6 926.7 354.2 928.7 349C930.6 343.8 934.9 334.6 938.3 328.5C943 320.3 946.6 315.5 953 308.9C959.5 302.4 963.2 299.5 968.5 296.9Z" fill="#A3A0A0"/>
<path d="M833.5 296C829.4 294.4 826 292.6 826 292C826 291.4 826.2 291 826.5 291C826.8 291 827.8 291.4 828.7 291.9C829.7 292.3 833.2 293.9 836.5 295.4C839.8 296.9 842.2 298.3 841.8 298.5C841.3 298.8 837.6 297.6 833.5 296Z" fill="#ED4A4A"/>
<path d="M725.3 303.3C728.7 301 734.9 297.1 739 294.5C743.1 292 746.6 290 746.7 290C746.8 290 746.8 291.1 746.7 292.5C746.6 293.9 746.2 295 745.7 295C745.3 295 745.2 295.4 745.5 296C745.8 296.6 745.5 297.1 744.9 297.2C744.3 297.4 744.7 298.7 745.9 300.2C747.1 301.8 748 303.9 748 305C748 306.1 747.5 307.2 747 307.5C746.5 307.8 746.2 308.4 746.5 309C746.8 309.6 746.4 309.9 745.7 309.7C745.1 309.6 744.6 310.1 744.7 310.7C744.9 311.4 744.5 311.8 744 311.5C743.5 311.2 742.8 311.7 742.5 312.5C742.2 313.3 741.5 313.8 741 313.5C740.5 313.2 739.3 313.7 738.5 314.5C737.3 315.7 736.7 315.8 735.5 314.7C734.6 314.1 734 313.9 734 314.5C734 315.1 733.4 314.8 732.5 314C731.6 313.2 730.9 312.9 730.9 313.5C730.9 314.1 730.5 313.7 730 312.7C729.4 311.7 726.9 310.6 724 310C721.2 309.4 719 308.7 719 308.2C719 307.8 721.8 305.6 725.3 303.3Z" fill="#ED4A4A"/>
<path d="M707.5 287.7L714 284.4C717.6 282.5 721.2 281.2 722 281.4C722.8 281.7 727.8 283.7 733 285.9C738.2 288.1 742.6 290.4 742.7 290.9C742.9 291.5 742 292.7 740.7 293.5C739.5 294.3 738.2 294.7 737.7 294.5C737.3 294.2 736.8 294.7 736.5 295.5C736.2 296.3 735.5 296.8 735 296.5C734.5 296.2 733.8 296.6 733.6 297.3C733.4 297.9 732.2 298.5 730.9 298.4C729.6 298.3 725.8 297.1 722.5 295.6C719.2 294.1 714.5 291.7 707.5 287.7Z" fill="#4E4E4E"/>
<path d="M746.2 295.8C746.6 294.5 749.4 290.5 752.5 286.8V286.7C755.6 283 758.4 280 758.8 280C759.1 280 768.2 283.7 778.8 288.2C789.5 292.8 798.3 296.9 798.3 297.5C798.3 298 797.7 298.6 796.9 298.8C796.1 298.9 791.2 301.3 786 304C780.8 306.8 775.4 309.3 774 309.6C772.3 310 768 308.7 760.5 305.6C754.5 303 748.6 300.3 747.5 299.5C746 298.4 745.7 297.4 746.2 295.8Z" fill="white"/>
<path d="M722 278.5L722.1 271.6C722.3 267.1 722.7 265 723.4 265.3C724 265.5 731.2 268.6 739.5 272C747.7 275.4 754.8 278.5 755.2 278.9C755.5 279.2 754 281.7 747.5 289.2L743.5 288C741.3 287.4 735.6 284.9 722 278.5Z" fill="white"/>
<path d="M775.2 265.2C778.1 263.5 782.3 261.3 784.5 260.5C786.7 259.7 789.5 259.1 790.7 259C792.2 259 793.5 260 794.4 261.8C795.2 263.3 797.3 265.9 799.2 267.6C801 269.4 804.9 272 807.7 273.4C810.6 274.8 813.2 276.4 813.5 277C813.8 277.6 812.8 279.5 811.3 281.2C809.8 283 808.5 284.7 808.3 285C808.1 285.3 799.4 281.9 789 277.5C778.5 273.1 770 269.3 770 269C770 268.7 772.3 267 775.2 265.2Z" fill="white"/>
<path d="M707.7 286C707.3 286 707 279.9 707.1 272.4L707.1 272.386C707.2 259 707.201 258.901 709.3 259.6C710.5 260 713.4 261.1 720 264L719.5 279.4L714 282.6C711 284.4 708.2 285.9 707.7 286Z" fill="#4E4E4E"/>
<path d="M705 289V273.5C705 263.8 705.4 258 706 258C706.6 258 707 263.3 707 272C707 279.7 707.3 286 707.7 286C708.2 285.9 711 284.4 719.5 279.4L719.8 272.2C719.9 268.2 720.4 265 721 265C721.6 265 722 267.9 721.9 278.5L730.7 282.7C735.6 285 741.3 287.4 747.5 289.2L751.7 284.1C754.1 281.3 756.5 279.2 757 279.5C757.5 279.8 755.4 283.2 752.2 287C749.1 290.9 746.4 294 746.2 294C746.1 294 746.3 293 746.7 291.8C747.4 289.8 747.3 289.7 745.2 290.8C743.9 291.5 743 291.6 743 291C743 290.4 741.8 289.5 740.3 288.9C738.7 288.4 733.8 286.3 721 281L707.5 287.7L712 290.3C714.5 291.7 719.2 294.1 722.5 295.6C725.8 297.1 729.4 298.3 730.5 298.2C731.7 298.1 732.1 298.4 731.5 298.8C731 299.3 728 301.4 719.5 307.2L723.5 303.8C726.7 301 727.2 300.2 726 299.5C725.2 299 720.1 296.4 705 289Z" fill="black"/>
<path d="M778.5 260.8C781.8 259.1 786.5 257.4 789 257.1C791.5 256.7 795.3 256.6 797.5 256.8C799.7 257 804.2 258.4 807.5 260C810.8 261.5 815.2 264.4 817.2 266.4C819.3 268.4 821.9 271.7 822.9 273.7C823.9 275.8 825.1 280 826.2 288.5L834.8 292.4C839.6 294.6 844 296.7 844.5 297.2C845 297.6 845.2 298.2 844.7 298.5C844.3 298.8 840.3 297.2 835.8 295C830.9 292.7 826.7 291.3 825.5 291.6C823.7 292.1 823.5 291.6 823.5 285.8C823.4 281.4 822.8 278.3 821.3 275.5C820.1 273.3 817.7 270 815.8 268.1C814 266.3 810.3 263.6 807.5 262.2C804.1 260.5 800.4 259.6 796 259.4C792.4 259.2 787.9 259.4 786 260C784.1 260.5 779.5 262.8 775.8 265C771.9 267.3 769 268.5 769 267.7C769.1 267.1 769.8 265.9 770.8 265.2C771.7 264.5 775.2 262.6 778.5 260.8Z" fill="black"/>
<path d="M654 243C655.1 242.4 656.2 241.1 656.6 240C656.9 238.9 657.4 238 657.8 238C658.2 238 665.9 241.2 675 245.1C684.1 249 692.1 252.4 692.7 252.6C693.7 252.9 694 258.4 694 298L689.7 296.4C687.4 295.6 682.8 294.6 679.5 294.3C675.3 293.9 671.7 294.3 667.5 295.5C664.2 296.4 659.8 298.1 657.7 299.1C654.2 300.9 653.8 300.9 650.2 299.4C648.2 298.5 644.7 297.6 642.5 297.3C640.3 297.1 638.3 296.7 638 296.5C637.7 296.3 636 296.6 634.2 297.1C632.5 297.6 631 297.7 631 297.3C631 296.8 631.5 294.9 632.1 293C632.6 291.1 633.3 288.4 633.6 287C633.9 285.6 634.5 282.7 635 280.5C635.6 278.3 636.3 271.8 636.6 266C637.1 258.1 637.8 254.3 639.6 250.8C641.6 246.5 642.2 246.1 646.9 245.1C649.7 244.5 652.9 243.6 654 243Z" fill="white"/>
<path d="M675.2 245.2C658.3 238.2 657.5 237.8 658 235.4C658.3 233.6 658.9 233.1 660 233.5C660.8 233.8 703.4 251.5 754.6 272.8C837.3 307.2 847.7 311.7 847.1 313.4C846.8 314.4 846.2 315.4 845.8 315.6C845.3 315.8 838.4 313.3 830.3 309.9C822.1 306.6 814.8 303.5 814 303.1C813.2 302.6 792 293.9 767 283.6C742 273.3 720.7 264.4 719.7 263.9C718.8 263.4 715.2 261.9 711.7 260.5C708.3 259.1 705.4 258 705.2 258C705.1 258 705 265 705 289L715.2 294C720.9 296.8 725.8 299.4 726.3 299.8C726.7 300.2 725.1 302 718.5 307.4L712 306.1C708.4 305.4 703.4 303.5 696 299V276.7C696.1 257.6 695.8 254.4 694.5 253.5C693.6 252.9 684.9 249.2 675.2 245.2Z" fill="#A3A0A0"/>
<path d="M659.2 232.3C659.1 231.9 659.7 229.8 660.6 227.7C661.8 225 662.6 224.1 663.4 224.8C664 225.3 670.8 228.4 678.5 231.6C686.2 234.7 693.1 237.4 693.7 237.4C694.4 237.5 695 237.8 695 238.3C695 238.7 696 239.3 697.2 239.6C698.5 240 703.8 242.1 709 244.3C714.2 246.5 719 248.4 719.5 248.4C720 248.5 721 248.8 721.5 249.2C722 249.5 732.3 253.9 744.2 258.9C756.2 263.9 766.5 267.8 767 267.5C767.5 267.2 768.6 267.6 769.2 268.4C769.9 269.2 778.8 273.3 789 277.5C799.2 281.6 807.7 285 808 285C808.3 285 809.7 283.3 811.2 281.2C812.7 279.2 813.7 277.2 813.5 276.8C813.2 276.3 810.4 274.7 807.2 273.1C804.1 271.5 800.1 268.7 798.3 266.8C796.6 265 794.7 262.4 793.3 258.5L798.4 259.3C801.2 259.8 805.5 261.2 808 262.5C810.5 263.8 814.1 266.5 816.1 268.6C818 270.8 820.5 274.1 821.5 276C822.7 278.3 823.3 281.6 823.3 291.5L831.4 294.9C835.9 296.8 841.3 299.1 843.5 300.1C845.7 301 848.5 302 852 303L850 307C848.5 309.9 847.5 310.9 846.2 310.5C845.3 310.2 802.9 292.7 752 271.6C701.1 250.4 659.4 232.8 659.2 232.3Z" fill="#D1D1D1"/>
<path d="M597 216C596.5 214.9 596 213 596.1 211.8V209.5L597.1 211.7C597.6 213 599.3 214.3 601 214.7C603.3 215.3 603.7 215.8 602.7 216.8C602 217.5 600.7 218.1 599.7 218C598.8 218 597.5 217.1 597 216Z" fill="white"/>
<path d="M597.6 209.2C597.9 207.2 598.9 204.7 599.7 203.8V203.7C600.6 202.8 601.6 202 601.9 202C602.2 202 603.1 202.4 603.8 202.8C604.9 203.4 604.9 204.1 602 210L612.5 214.2C618.3 216.6 623 218.7 623 219C623 219.3 622.6 220.2 622.1 221C621.3 222.3 619.9 221.9 612.8 218.7C608.2 216.7 603.7 215 602.7 215C601.8 215 600.1 214.5 599 214C597.4 213.2 597.1 212.3 597.6 209.2Z" fill="#A3A0A0"/>
<path d="M597.8 204.6C597.7 204.1 598.5 202.8 599.5 201.8C600.5 200.8 601.9 200 602.6 200C603.4 200 604.7 200.2 605.5 200.5C606.3 200.8 607 201.7 607 202.5C607 203.7 606.5 203.8 604.2 203C602 202.2 601.2 202.3 599.7 203.7C598.7 204.7 597.9 205.1 597.8 204.6Z" fill="white"/>
<path d="M593.1 202.8C594.1 200.7 596.2 198.1 597.7 197C599.1 195.9 601.6 195 603.2 195C604.7 195 607.3 196.1 609 197.5C610.7 198.9 612.2 201.3 612.5 203C612.9 205.5 614 206.5 618.7 208.7C623.7 211.1 624.5 211.8 624.2 214C624.1 215.4 623.5 216.9 623 217.5C622.4 218.2 618.6 216.9 602.2 209.5L603.8 206.3C604.7 204.5 605.8 203.3 606.2 203.5C606.7 203.8 607 203.3 607 202.5C607 201.7 605.8 200.7 604.2 200.4C602.3 200 601 200.4 599.7 201.7C598.7 202.7 597.9 204.5 598 205.7C598 207 597.4 208.9 596.7 210C595.8 211.4 595.8 212.7 596.5 214.7C597.1 216.3 598.4 217.6 599.5 217.8C600.6 218 602.3 217.4 603.2 216.6C604.6 215.3 605.5 215.2 607.2 216.1C609.5 217.3 609.5 217.3 606 220.2C604 221.8 601.3 223 599.7 223C598 223 595.9 221.9 594 220C592.2 218.2 591 215.9 590.9 214.3C590.8 212.7 590.9 210.4 591 209C591.1 207.6 592.1 204.8 593.1 202.8Z" fill="#D1D1D1"/>
<path d="M926.9 141.8C927.9 138.9 931.2 129.2 934.1 120.3V120.2C937.9 108.3 939.8 104 940.9 104C941.8 104 945.1 105.2 954 109L948.9 123.2C946.1 131.1 942.9 140.4 941.8 144C939.704 150.289 939.7 152.393 939.601 208.504L939.6 208.8C939.5 259.6 939.7 267.2 941 268C941.8 268.5 953.7 273.5 967.5 279.1C981.2 284.7 993 289.7 993.5 290.2C994.1 290.7 993.1 291 991 291.1C989.1 291.1 984.6 291.7 981 292.5C977.4 293.3 971.6 295.4 968 297.1C963.667 299.233 958.967 302.833 953.9 307.9C949.7 312.1 944.4 318.4 942.1 322C939.7 325.6 935.9 332.6 933.5 337.5C931.1 342.4 928.1 350.1 926.7 354.5C925.3 358.9 923.7 365.9 923 370C922.2 374.5 922 380.9 922.3 386C922.7 390.7 923.7 397 924.6 400C925.5 403 927.8 408.6 929.8 412.4C931.9 416.2 934.1 419.6 934.8 419.9C935.5 420.2 936.2 420.2 936.5 419.7C936.8 419.3 935.4 416.2 933.5 412.7C931.6 409.3 929.2 403.6 928.1 400C927.1 396.4 925.9 390.6 925.5 387C925.1 383.3 925.3 376.9 926 372C926.6 367.3 928.5 359.4 930.1 354.5C931.7 349.6 935.1 341.4 937.6 336.5C940.2 331.6 944.1 324.8 946.3 321.5C948.6 318.2 953.4 312.6 957 309.2C961.4 304.9 965.9 301.7 971 299.3C977.1 296.4 980.1 295.6 986.9 295.1C993.9 294.6 995.4 294.2 995.7 292.7C995.8 291.8 996.5 291 997 291C997.5 291 1000.9 293.8 1004.3 297.2C1008.4 301.3 1011.8 305.8 1013.8 310C1015.7 313.9 1017.4 319.7 1018.2 324.5C1019.2 330.9 1019.1 334.3 1018.1 341.5C1017.4 346.4 1015.7 354.1 1014.3 358.5C1012.9 362.9 1010.9 368.5 1009.8 371C1008.7 373.5 1006.2 378.9 1004.2 383C1002.1 387.1 998.5 393.4 996.1 397C993.7 400.6 988.3 406.8 984.1 410.9C979.2 415.8 974.4 419.4 970.5 421.2C967.2 422.7 961.6 424.5 958 425.1C953.2 425.9 950 425.9 946 425.1C943 424.5 940.4 424.1 940.3 424.3C940.2 424.4 940 431.1 939.8 439.3C939.6 447.4 939.6 454 939.7 454C939.9 454 943 452.5 946.7 450.6C950.5 448.7 956.4 445.3 966.5 439.3L971.9 441.4C975.6 442.8 977.4 444.1 977.6 445.5C977.8 446.6 978 448.6 978 450C978 451.4 978 455 978.1 463.5L973.3 465.8C970.7 467.1 958.6 473.7 946.5 480.5C934.4 487.2 921.8 494.2 918.5 496.1L917.419 496.69C913.405 498.878 904.17 503.913 884.5 514.7L873.9 510.5L874.4 505C874.7 502 874.9 497.5 875 490.5L882 486.5C885.8 484.3 893.4 479.7 898.7 476.3C904.1 473 909.5 469.5 910.7 468.6C912.7 467.2 913 466.1 913 461C913 457.7 913.5 454.8 914 454.5C914.6 454.2 915 456.7 915 461C915 467.8 915.1 468 918 469.5C919.6 470.3 921.5 471 922 471C922.6 471 923 461.3 923 417L915.5 414.2L915.2 431.6C915.1 442.4 914.6 449 914 449C913.4 449 913 442.4 913 431.2C913 421.5 912.7 413.2 912.3 412.9C911.8 412.6 908.8 411.3 905.5 410C902.2 408.7 897.2 406.7 894.5 405.5C891.7 404.3 885.7 401.8 881 400C875.6 397.9 871.5 395.5 869.7 393.6C868.2 391.9 865.5 388.1 863.7 385.2C862 382.3 860.4 380.1 860.4 380.2C860.3 380.4 859.4 384.3 858.5 389C857.6 393.7 856.3 398.1 855.6 398.8C855 399.5 854.8 400.1 855.2 400C855.7 400 854.8 403.3 853.4 407.2C852 411.2 849 417.9 846.7 422C844.5 426.1 840.1 432.1 837.1 435.3C833.7 438.8 828.9 442.4 824.7 444.5C821 446.4 817.2 448 816.2 448C815.3 448 812.1 446.6 809.2 444.8C806.3 443 797.6 437.1 789.7 431.6C781.9 426.2 773 419.4 764.5 411.2L733 429.4C715.7 439.4 698.4 449.4 694.5 451.5C690.6 453.6 686.1 456.1 684.5 457C682.9 457.9 678.8 460.2 675.5 462C672.2 463.9 661.6 469.8 634.5 484.8L633.3 495.1L633.299 495.113C632.699 500.812 631.9 508.403 631.5 512C631.1 515.6 630.4 521.4 629.9 525C629.4 528.6 629 533.4 629 535.7C629 539.5 628.3 540.7 618 552L619.6 563.7C620.7 572 621 579.1 620.5 587.5C620.2 594.1 619.7 600.6 619.5 602C619.3 603.4 618.8 607 618.5 610C618.1 613 617.2 618.4 616.5 622C615.8 625.6 614.7 630.4 614.1 632.7C613.5 635.1 611.6 640.5 609.9 644.7C608.2 649 606.1 654.5 605.3 657C604.6 659.5 602.8 665.7 601.5 670.7C599.4 678.6 599.2 680.7 600 684.7C600.8 688 600.8 693.1 600 701.2C599.5 707.7 598.5 716 598 719.7C597.4 723.5 596.6 728.1 596.2 730C595.7 731.9 594.5 735.3 593.4 737.5C592.2 739.7 589.8 742.5 587.9 743.8C585.5 745.4 583.1 746 579.7 746C575.8 746 574.8 745.6 573.5 743.5C572.7 742.1 571.5 739.1 571 736.7C570.4 734.4 569.5 723.5 569 712.5C568.1 695.3 568.2 691.7 569.5 686.5C570.4 683.2 572 679.1 573 677.5C574.4 675.2 575 671.6 575.5 662.5C575.9 655.7 575.7 647.3 575.2 643C574.6 638.9 573 630.5 571.6 624.5C570.2 618.5 569 611.3 568.5 603.9L553.5 597.5C545.2 594 528.8 587.1 517 582.2C505.2 577.2 492.4 571.7 481.7 566.5L482.3 559.5C482.7 555.6 483 551.3 483 549.7C483 547.4 484 546.4 495.5 539.9L508.2 545.9C515.3 549.3 521.7 552 522.5 552C523.8 552 524 548.5 524 526.2C524 512.1 523.7 499.6 523.4 498.5C523.2 497.4 521.7 496 520.2 495.4C518.7 494.7 509.4 490.9 499.5 487C489.6 483 479.7 478.9 477.5 477.9C475.3 477 471.4 475.2 468.7 474.1C464 472 464 472 464 462.5L456.3 461.1C449.8 460 448 459.3 445.5 456.6C443.9 454.9 442 451.9 440.4 446.5L429 445.7C421.4 445.2 416.6 445.2 414.7 445.9C412.4 446.8 411.9 447.8 411.4 451.7C411 454.4 411.2 459.4 411.8 463C412.4 466.6 413.6 473.8 414.5 479C415.8 486.3 416 489.5 415.2 493C414.6 495.5 412.5 501.8 410.5 507C408.4 512.2 406.2 519.9 405.4 524C404.7 528.1 403.6 538.9 403 548C402.5 557.1 402 566.2 402 568.2C402 571.6 402.3 572 404.5 572C406.6 572 407 572.5 407.1 575.2C407.1 577 407.3 580.7 407.6 583.5C407.8 586.2 408.2 590.3 408.5 592.5C408.8 595.5 408.5 596.9 407.2 598C406.3 598.9 403.7 600.9 401.5 602.5C399.3 604.2 396.6 606.3 395.5 607.3C394.4 608.3 390.6 611.1 387 613.4C383.4 615.7 374.5 620.9 367.2 624.8C360 628.8 352.1 632.5 349.7 633.2C347.4 633.8 344.7 634 343.7 633.7C342.567 633.233 342 631.9 342 629.7C342 628 342.5 624.9 343.1 623C343.8 621.1 345.8 617.1 347.7 614.2C349.5 611.4 354.9 604.6 359.7 599.2C364.5 593.9 369 588.8 369.8 588C370.6 587.2 373.2 583.7 379.8 574L378.5 564.8C377.7 559.7 376.8 551.9 376.5 547.5C376.1 543.1 375.7 538.4 375.5 537C375.3 535.6 374.6 529.8 374.1 524C373.5 518.2 372.4 505.3 371.5 495.2C370.4 481.3 370.2 474.4 371 465.7C371.5 459.6 372.2 453.6 372.4 452.5C372.6 451.4 373.1 444.4 373.5 437C373.9 429.6 374.8 421.9 375.6 420C376.3 418.1 378.4 415.3 380.2 413.9C382 412.5 385.5 410.3 388 409C390.5 407.8 396.1 405.4 400.5 403.8C404.9 402.2 411 400 414 398.9C417 397.8 420.4 396.8 421.5 396.5C422.6 396.3 427.5 394.8 432.5 393.2C437.5 391.5 445.1 389.9 449.5 389.6C453.9 389.2 458.2 388.7 459 388.5C459.8 388.3 466.8 387.9 474.5 387.5C482.2 387.2 496.4 386.5 506 386C515.6 385.4 526.4 384.8 530 384.5C533.6 384.2 537.9 383.7 539.5 383.5C541.1 383.3 545.6 382.8 549.5 382.4C553.4 382.1 556.7 381.7 557 381.5C557.3 381.4 560.2 380.9 563.5 380.5C566.8 380.2 572.1 379 575.2 377.9C578.4 376.9 584.7 374.3 589.2 372.2C593.8 370.1 601.4 365.8 606.2 362.7C611.3 359.4 618.4 353.5 623 348.7C627.3 344.2 630.6 340.2 630.2 339.8C629.8 339.4 627.2 338.8 624.5 338.5C621.7 338.1 615.4 336.7 601.1 332.5L600.5 328C600.1 325.5 598.9 319.7 597.8 315C596.1 307.7 596 305.6 597 300C597.6 296.4 598.8 291.2 599.7 288.5C600.6 285.7 602.8 280.6 604.6 277C606.4 273.4 609.9 266.9 612.4 262.5C614.9 258.1 617 254.2 617 253.7C617 253.3 614.4 255.4 611.2 258.3C608.1 261.2 601.9 265.3 597.5 267.5C590.5 271 588.4 271.5 581 271.9C574.7 272.2 571.1 271.8 567 270.5C564 269.6 559.2 267.8 556.5 266.5C553.7 265.3 540.5 259.9 527.1 254.4C507.6 246.5 502 243.8 499.1 240.9C497.1 238.9 494.1 234.7 492.3 231.4C490.6 228.2 488.5 222.6 487.6 219C486.6 214.6 486.2 208.9 486.4 201.5C486.6 195.3 487.5 187.6 488.4 184C489.4 180.4 491.4 173.6 493.1 168.7C494.7 163.9 497.6 156.7 499.6 152.7C501.6 148.8 504.9 143.1 506.9 140.1C508.9 137.1 512.3 132.6 514.6 130.1C516.8 127.6 521.9 123.4 525.8 120.7C529.8 118.1 536.5 114.8 540.7 113.4C545.6 111.8 551.1 110.8 555.6 110.7C559.5 110.6 563.7 111 565.1 111.7C566.4 112.3 581 118.4 597.5 125.1L597.57 125.128C627.101 137.1 627.604 137.304 633 142.9C636 146 639.7 150.8 641.2 153.5C642.7 156.3 644.6 161.2 645.4 164.5C646.3 167.8 647 173.9 647 178C647 182.1 646.6 188 646 191C645.4 194 644.3 198.9 642 207L638.7 205C637 203.9 634.7 203 633.7 203C632.8 203 630.4 204.9 625.1 211.5L619 208.7C614.2 206.6 612.9 205.4 612.4 203.2C612.1 201.7 610.7 199.3 609.2 197.7C607.4 195.9 605.5 195 603.5 194.9C601.9 194.9 599.3 195.8 597.7 197C596.2 198.1 594.1 200.7 593.1 202.7C592.1 204.8 591.1 207.6 591 209C590.9 210.4 590.8 212.7 590.9 214.2C591 215.9 592.2 218.2 594 220C596 222 598 223 600 223C601.9 223 604.2 221.9 609.5 217.3L621.1 222.5V228C621.1 231 621.4 234.8 621.6 236.5C621.9 238.2 621.4 241.4 620.5 243.7C619.3 247.1 619.3 248.1 620.2 248.4C621.1 248.6 618.5 254.7 612.6 266.1C603.7 283.5 603.7 283.5 603.5 291.5C603.4 295.9 603.9 301.7 604.5 304.5L604.572 304.78C605.282 307.521 606.488 312.173 609 320L614.2 320.6C617.1 321 622.6 321.2 626.5 321.3C630.4 321.3 635.7 320.5 638.5 319.6C641.2 318.7 646.2 315.8 649.5 313.2C652.8 310.5 657.5 307.2 660 305.9C664.3 303.6 665.2 303.5 682 303.7C697.8 303.9 699.3 303.8 697.5 302.5C696.4 301.6 693 300 690 298.8C686.2 297.4 682 296.7 676.4 296.6C669.1 296.5 667.7 296.8 653.5 303.8L648 301.2C644.2 299.5 641.1 298.7 638 298.9C635.4 299 632.1 300 630.1 301.3C628.2 302.5 625 305.4 623.1 307.7C621.1 310 619.2 311.9 618.7 312C618.3 312 618 309.5 618 306.5C618 303.5 618.5 300 619 298.7C619.6 297.5 621.7 295.4 623.6 294C625.9 292.4 628.3 289.2 630.3 285C633.1 279.4 633.6 277 634.1 268C634.4 262.2 635.3 255.5 636.1 253.1C636.9 250.6 638.7 247.4 640.2 245.8C641.8 244.3 644 243 645.2 242.9C646.5 242.9 648.4 242.7 649.5 242.4C650.6 242.2 652.2 241.3 653.1 240.3C653.9 239.3 655.9 234.8 657.3 230.2C658.8 225.7 659.8 221.1 659.5 220C659.2 218.7 657.4 217.5 654.2 216.5C651.6 215.7 647.7 213.9 645.5 212.5C643.3 211 641.2 210.2 640.8 210.7C640.5 211.1 639 214.4 637.5 218C636 221.6 633.1 227.7 630.9 231.5C628.8 235.3 626.4 239.3 625.7 240.2C625.1 241.2 624.3 241.9 624 242C623.7 242 623.5 237.8 623.5 232.7C623.5 225.2 624 222.3 626 217.3C627.4 213.8 629.7 209.6 633.8 204.5L636.6 206.4C638.2 207.4 640.5 208.3 641.6 208.4C642.8 208.5 644.6 209.2 645.6 210.2C646.7 211.1 650 212.6 653 213.6C656 214.6 659.3 216.2 660.2 217.2C661.2 218.2 662 220.1 662 221.5C662 222.9 661.4 225.5 660.6 227.3C659.8 229 658.4 233.1 657.6 236.3C656.6 239.9 655.3 242.4 654 243C652.9 243.6 649.7 244.4 647 245C642.4 245.9 641.8 246.4 639.6 250.8C637.7 254.5 637.1 257.6 636.6 266C636.3 272 635 280.9 633.5 286.8C632.1 292.4 631 297.1 631 297.3C631 297.4 632.5 297.2 634.3 296.9C636 296.6 640 296.9 643 297.6C646 298.2 649.6 299.3 651 300C653.1 301.1 654.1 301 657.5 299.3C659.7 298.2 663.7 296.6 666.5 295.7C669.6 294.8 674.2 294.3 678.5 294.5C682.4 294.6 687.4 295.5 694 298L694.1 289.2V267.3C694 259 694.4 254 695 254C695.6 254 696 262.2 696 299L700.7 301.9C703.4 303.5 708.5 305.4 712.3 306.1C716 306.9 719 307.8 719 308.3C719 308.7 721.2 309.4 724 310C726.7 310.6 729.2 311.3 729.4 311.8C729.6 312.2 726.6 312.3 722.6 312.1C718.7 311.9 711.5 312.3 706.5 312.9C700.7 313.6 696.6 314.7 695 315.8C693.4 317 692.4 318.8 692.2 320.8C692.1 322.7 693 325.7 694.2 328.1C695.7 330.7 698.8 333.6 703 336.4C706.6 338.7 711.4 341.4 713.7 342.3C716.1 343.3 720 344.4 722.5 345C725 345.6 731.6 346 737.2 346.1C744.4 346.1 750.4 345.5 757 344C764.4 342.3 766.2 341.6 765.2 340.7C764.5 340 764 338.1 764 336.5C764 334.9 764.9 332 766 330.3C767.1 328.5 769.9 325.6 772.2 323.9C774.6 322.2 779 319.6 782 318.2C786.6 316.1 789 315.6 796.8 315.6C805.2 315.5 806.4 315.3 808.1 313.3C809.5 311.6 809.8 310.4 809.1 308.8C808.7 307.5 807.2 305.9 805.9 305.3C804.6 304.6 801.8 304 799.7 304C796.9 304 796 303.6 796 302.3C795.9 301.3 796.9 299.6 798 298.5C799.1 297.4 800.3 296.8 800.8 297.3C801.2 297.7 800.9 298.6 800.2 299.3C799.5 299.9 799 300.8 799 301.3C799 301.7 800.5 302 802.2 302C804.2 301.9 806.6 302.9 808.3 304.2C810.5 306 811.4 306.2 812.3 305.3C812.9 304.6 813.9 304 814.5 304C815 303.9 814.7 304.7 813.8 305.7C812.8 306.7 812.1 308.6 812.1 310C812.1 311.4 810.9 313.6 809.4 315C807.1 317.3 805.8 317.6 796.2 318.1C788.6 318.4 784.5 319.1 782 320.4C780.1 321.5 776.7 323.5 774.5 325C772.3 326.5 769.5 329.2 768.3 331.1C767.1 333 766 335.5 766 336.8C766 338.2 767.6 340.4 770.7 343C774.6 346.1 777.2 347.3 784 349C788.7 350.1 794.5 352.3 797 353.8C800.1 355.7 802.3 358.1 804 361.5C806 365.5 806.5 368.2 806.6 374.5C806.7 381 807.1 382.5 808.4 382.8C809.3 382.9 813.2 381.1 817.1 378.8C821 376.4 825.1 373.6 826.3 372.5C827.4 371.4 831.1 366.4 834.3 361.5C837.6 356.6 842 348.9 844.1 344.5C846.3 340.1 848 336.1 848 335.5C848 334.9 847.2 332.5 846.1 330C844.9 327.5 844 324.4 844 323C844 321.6 845.8 316.6 848 311.8C851.3 304.6 851.7 302.9 850.5 302.5C849.7 302.2 849 301.3 849 300.5C849 299.3 849.4 299.2 851.2 300.1C853.1 301.1 854.1 300.9 856.7 299.1C858.5 298 861 297 862.2 297C863.5 297 866.3 298.1 872.5 301.8L876.8 295.1C879.2 291.5 884.6 285.2 888.8 281.2C894.2 276 898.9 272.7 912.5 266V209.3C912.5 152.714 912.4 152.5 910.202 147.803L910.2 147.8C909 145.1 907.7 141.8 907.4 140.3C907 138.3 907.4 137 908.7 135.7C910.4 134.1 910.7 134.1 915.7 136.2C920 138.2 921 139.1 921.9 142.3C922.5 144.3 923.5 146.2 924 146.5C924.5 146.8 925.8 144.6 926.9 141.8Z" fill="black"/>
<path d="M570.9 693.8C571.1 690.2 572 685.5 572.9 683.5L574.4 679.8L575.5 683C576 684.8 577.6 687.2 579 688.2C580.4 689.2 582.9 690.3 584.5 690.5C586.1 690.7 588.9 690.5 590.5 690C592.1 689.5 594.2 687.9 595 686.6C595.8 685.2 596.9 684.4 597.4 684.8C598 685.2 598.1 690.9 597.7 698.5C597.4 705.6 596.4 715.9 595.5 721.2C594.7 726.6 593 733.1 591.8 735.6C590.5 738.2 588.1 741.1 586.5 742.1C584.9 743.1 581.8 744 579.8 744C576.5 744 575.8 743.6 574.6 740.8C573.8 739 572.7 733.5 572.2 728.5C571.7 723.5 571.1 715.2 570.9 710C570.7 704.8 570.7 697.5 570.9 693.8Z" fill="#ED4A4A"/>
<path d="M385.8 576.5C388.4 576.8 393.3 576.5 396.6 575.7C399.9 575 403 574.4 403.6 574.4C404.2 574.4 404.8 575.5 404.9 576.9C405 578.3 405.3 583.3 406.1 596.5L398.9 602C394.9 605 388.9 609.3 385.6 611.6C382.3 613.8 374.6 618.3 368.6 621.5C362.5 624.8 356 628.2 354.1 629.2C352.1 630.1 349.3 631.2 347.8 631.5C346.1 631.8 344.9 631.5 344.6 630.8C344.4 630.1 344.7 627.5 345.2 625C345.7 622.4 348.1 617.7 350.8 613.9C353.4 610.2 360 602.1 365.4 595.9C370.8 589.6 376.1 583.5 377.2 582.3C378.2 581 379.5 579.1 380.1 578C380.9 576.3 381.8 576.1 385.8 576.5Z" fill="#ED4A4A"/>
<path d="M544.2 572.7C543.2 571.7 543.7 571 546.7 569.3C548.8 568.1 550.9 567 551.5 567C552 567 557 569 562.5 571.5C568 574 573.1 576 573.7 576C574.4 576 575.2 576.5 575.5 577C575.8 577.6 575.2 579.6 574.2 581.5C573.3 583.5 572.2 585 571.7 585C571.3 585 565.3 582.5 558.2 579.4C551.2 576.4 544.9 573.3 544.2 572.7Z" fill="#A3A0A0"/>
<path d="M486.8 547.9C486.7 547.6 488.4 546.4 490.6 545.2C492.7 544 495.1 543 495.7 543C496.4 543 502.5 545.5 509.2 548.6C516 551.8 521.9 554.6 522.5 555.1C523 555.5 523.4 557.9 523 565L513.2 560.7C507.9 558.3 499.8 554.5 495.2 552.4C490.7 550.3 486.9 548.3 486.8 547.9Z" fill="#A3A0A0"/>
<path d="M569.1 542.4C568.233 540.467 568 538 568.4 535C568.8 532.5 569.4 531 569.9 531.5C570.3 532 571.9 535.4 573.4 539C574.9 542.6 576.4 546.3 576.6 547.2C577 548.9 576.8 548.9 573.8 547.2C572 546.2 569.9 544.1 569.1 542.4Z" fill="#ED4A4A"/>
<path d="M620.1 541.5C620.7 539.3 622.1 535.6 623.1 533.2C624.1 530.9 625.2 529 625.5 529C625.8 529 626 531.7 626 535C626 540.5 625.7 541.3 622.8 544.1C621 545.9 619.4 546.9 619.2 546.4C619 545.9 619.4 543.7 620.1 541.5Z" fill="#ED4A4A"/>
<path d="M553.5 558.8C553.5 555 553.6 542.5 553.8 531C553.9 517.8 554.4 510 555 510C555.5 510 557 510.5 558.3 511C560.2 511.9 560.7 513.4 561.8 520.8C562.5 525.6 563.2 530.2 563.4 531C563.5 531.8 564 534.3 564.5 536.5C564.9 538.7 565.8 541.6 566.5 543C567.2 544.4 568.9 546.5 570.2 547.7C571.4 548.9 573.6 550.3 575 550.8C576.7 551.4 577.7 552.8 578.3 555.1C578.7 557 579 560.5 578.9 563C578.9 565.5 578.3 569.2 576.5 574.9L553.5 565.5V558.8Z" fill="#D1D1D1"/>
<path d="M590 511.7C592.5 510.8 595.4 509.9 596.5 509.7C597.6 509.4 600.5 509.4 603 509.7C605.5 510 609.3 511 611.5 512.1C613.7 513.1 616.9 515.2 618.6 516.7C620.3 518.2 622.2 520.4 622.8 521.5C623.4 522.6 623.6 524.6 623.3 526C623 527.4 621.3 532.3 619.4 537C617 543 616 547.1 616 551C616 554 616.7 560.5 617.4 565.5C618.2 570.8 618.6 579.2 618.4 586C618.1 592.3 617.5 601.3 616.9 606C616.3 610.7 615.6 615.9 615.4 617.5C615.2 619.1 613.9 624.7 612.5 629.8C611.1 634.8 609.1 640.9 608 643.3C606.8 645.6 604.8 651.3 603.4 656C602 660.7 600.7 665.4 600.5 666.5C600.2 667.6 599.3 671 598.3 674C597.4 677 596 680.6 595.1 682C594.3 683.4 592.7 685.3 591.6 686.2C590.3 687.3 587.8 688 585.3 688C581.8 688 580.6 687.5 579 685.3C577.3 683 577 681.1 577.1 674.5C577.1 670.1 577.5 662.5 577.9 657.5C578.2 652.5 578.1 646 577.7 643C577.2 640 575.5 631.9 573.8 625C571.3 614.3 570.9 611.1 571.3 603C571.5 597.8 572 592.6 572.3 591.5C572.6 590.4 574.7 585 577 579.5C581.2 569.6 581.2 569.4 580.7 559.5C580.3 550.4 579.9 548.6 576.1 540.3C573.9 535.2 572 529.5 572 527.8C571.9 525.3 572.9 523.5 576 520.3C578.2 517.9 581.2 515.4 582.7 514.6C584.3 513.8 587.5 512.5 590 511.7Z" fill="white"/>
<path fill-rule="evenodd" clip-rule="evenodd" d="M526.5 498C526.8 498 530 499.4 540.5 504L540 538C539.7 559.9 539.9 572.3 540.5 572.9C541 573.4 548 576.9 556 580.5C564 584.2 570.6 587.2 570.7 587.3C570.9 587.4 570.2 590.5 567.5 600.8L563 599C560.5 598 543.9 591.1 526 583.6C508.1 576.1 491.5 569 484.5 565.5L484.8 558C485 553.9 485.2 550.4 485.3 550.3C485.4 550.1 494.3 554.1 505 559C515.7 564 524.7 567.8 525 567.4C525.3 567.1 525.5 566.3 525.6 565.7C525.7 565 525.8 549.5 525.8 531.3C525.9 513 526.2 498 526.5 498V498ZM542.5 505C542.8 505 544.8 505.7 551 508V565L542 570V537.5C542 519.6 542.2 505 542.5 505Z" fill="#4E4E4E"/>
<path d="M877.2 509.3C876.1 508.7 876 506.7 876.5 500.8L877.2 493L885 497L884.4 503.7C884 507.5 883.7 510.6 883.6 510.8C883.6 511 882.4 510.9 881 510.6C879.6 510.3 877.9 509.7 877.2 509.3Z" fill="#A3A0A0"/>
<path d="M879 491.1C879 490.8 886.5 486 895.8 480.4C905 474.8 912.8 470.2 913.2 470.1C913.6 470.1 915.6 470.9 917.5 471.8C919.4 472.8 921 473.8 921 474.1C921 474.3 919.1 475.7 916.7 477.2C914.4 478.6 906.7 483.3 887 495.6L882.9 493.6C880.7 492.5 878.9 491.3 879 491.1Z" fill="#A3A0A0"/>
<path d="M475.5 474.7C467.6 471.3 467.5 471.2 467 467.3L466.6 463.3L477 463.7C484.9 464.1 489.1 464.8 494 466.6C497.6 467.9 513.3 473.5 529 479C544.7 484.5 558 489.5 558.6 490.2C559.2 490.9 560 495.7 561 510L555.8 508.1C552.9 507.1 543.3 503.1 534.5 499.2C525.7 495.4 510.6 489 501 485.1C491.4 481.2 479.9 476.5 475.5 474.7Z" fill="#B03737"/>
<path d="M513 462.4C522.6 462.1 530.7 461.6 530.9 461.4C531.1 461.2 535.1 461.1 539.9 461.1C544.6 461.2 549.4 461.4 550.5 461.6C552 461.9 553.1 463.9 554.7 468.8C555.8 472.5 557.3 477.8 557.9 480.5C558.5 483.3 559.3 486.5 559.5 487.8C559.9 489.6 559.7 489.9 558.3 489.4C557.3 489 541.4 483.4 523 476.8C504.6 470.3 489.3 464.8 489 464.6C488.7 464.3 490.1 463.9 492 463.6C493.9 463.3 503.4 462.8 513 462.4Z" fill="#ED4A4A"/>
<path d="M445.4 453C444.8 452.2 443.9 450.5 443.5 449.3C442.9 447.3 443.2 447 445.2 447C446.4 447 448.1 447.4 448.7 447.8C449.5 448.2 449.8 449.7 449.5 451.8C449.2 453.6 448.5 454.9 447.8 454.8C447.1 454.6 446 453.8 445.4 453Z" fill="#ED4A4A"/>
<path d="M940.7 456C941.2 456 946.9 452.9 953.5 449.1C960.1 445.3 966 442.1 966.5 442C967 442 969 442.5 974.1 444.5L957.5 454.2C948.4 459.6 940.8 464 940.5 464C940.2 464 940 462.2 940 460C940 457.8 940.3 456 940.7 456Z" fill="#A3A0A0"/>
<path d="M925 474.5V446.3L924.9 418L927.2 418.9C928.5 419.4 931.2 420.5 937 423V438.5C937 447 937.2 454.4 937.5 455C937.8 455.6 938 458.5 938 461.5C938 464.5 938.5 467 939 467C939.5 467 947.8 462.5 974.5 447.1L975.1 449.8C975.5 451.3 975.8 454.6 976 462L970.3 464.9C967.1 466.5 953.5 474 940 481.7C926.5 489.4 909.1 499.1 901.3 503.3C893.4 507.6 886.8 511 886.5 511C886.2 511 886.2 508.2 886.4 504.7C886.7 499.8 887.2 498.2 888.8 497C889.9 496.2 898.5 490.8 925 474.5Z" fill="#4E4E4E"/>
<path d="M682.7 420C685.9 418.9 692.3 417.1 697 416.1C701.8 415 709.6 414.1 714.9 414.1C720.7 414 724 414.4 723.4 414.9C722.9 415.4 713.7 421 703 427.2C692.3 433.5 673.9 443.7 662.3 449.8C650.6 456 640.5 461 640 461C639.5 461 639.3 461.6 639.7 462.2C640.2 463 640.1 463.2 639.5 462.8C638.9 462.4 639.1 459.2 640.1 453.8C641 449.2 642 444.7 642.4 443.7C642.7 442.8 643.4 442 643.9 442C644.4 442 645.5 441.4 646.2 440.7C646.9 440 651.3 436.9 656 433.8C660.7 430.8 667.3 426.8 670.8 425.1C674.2 423.4 679.6 421.1 682.7 420Z" fill="#ED4A4A"/>
<path d="M731.5 413.6C735.4 413.3 742.1 411.7 746.5 410.1C750.9 408.5 755.9 407.1 757.5 407.1C759.1 407 761 407.5 761.7 408.2C762.7 409.2 761 410.7 752.7 415.7C747.1 419.1 730.6 428.6 716 436.8C701.4 445 679.4 457.3 667 464.2C654.6 471.1 642.6 477.7 640.3 478.9C637.9 480 635.9 481 635.8 481C635.6 481 636.1 477 636.7 472.2C637.4 467.4 638 463.2 638 462.7C638 462.3 638.8 461.7 639.7 461.3C640.7 461 651 455.7 662.5 449.7C674 443.6 692.3 433.5 703 427.2C713.7 420.9 723 415.5 723.5 415C724 414.6 727.6 414 731.5 413.6Z" fill="#B03737"/>
<path d="M403 405.3C408.2 403.4 417.4 400 423.5 397.9C429.6 395.8 435.5 394 436.7 394C438.4 394 439.5 395 440.8 398.3C441.8 400.6 443.6 406.1 444.8 410.5C446 414.9 447.1 420.1 447.4 422C447.6 423.9 448.1 427.9 448.4 430.8C448.7 433.6 449.3 438.4 449.6 441.3C450.1 445.8 450 446.4 448.6 445.8C447.7 445.3 441.9 444.5 435.7 443.9C429.6 443.4 422.7 442.9 420.5 442.9C418.3 442.9 415.4 443.2 414 443.5C412.6 443.8 411.1 444.5 410.5 445.1C409.9 445.6 409.4 449.8 409.4 454.3C409.3 459.1 410.1 466.1 411.1 471C412.2 475.7 413 482.7 413 486.5C413.1 492.3 412.4 495.3 409.1 504C406.9 509.8 404.4 517.7 403.6 521.5C402.8 525.4 401.9 531.2 401.6 534.5C401.4 537.8 400.8 547.8 399.5 573L395 573.6C392.5 574 388.7 574.4 382.7 574.5L381.4 568C380.8 564.4 379.9 558.1 379.5 554C379.2 549.9 378.7 545.8 378.5 545C378.3 544.2 377.8 539.9 377.5 535.5C377.2 531.1 376.7 525.7 376.5 523.5C376.3 521.3 375.8 517.5 375.6 515C375.3 512.5 374.7 506.5 374.3 501.5C373.8 496.6 373.5 485.3 373.5 476.5C373.5 467.7 373.8 458.5 374.3 456C374.7 453.5 375.3 445.9 375.6 439C375.9 432.1 376.6 424.8 377.1 422.8C377.6 420.7 379.2 417.8 380.7 416.4C382.3 415 385.7 412.7 388.5 411.3C391.2 409.9 397.8 407.2 403 405.3Z" fill="white"/>
<path d="M713.3 394.9C713.7 393 715.1 389.6 716.3 387.2C718.1 383.7 718.9 383 720.5 383.5C721.6 383.8 726.2 384.9 730.8 385.8C735.3 386.7 739 387.7 739 388C739 388.3 736.9 389.7 734.3 391.1C731.6 392.6 727 394.5 724 395.5C721 396.4 717.1 397.4 715.5 397.7C712.5 398.2 712.5 398.2 713.3 394.9Z" fill="white"/>
<path d="M550.5 384.5C557.1 383.6 564.7 382.6 567.4 382.2C570.1 381.8 576.2 381.6 580.9 381.8C585.6 382 592.2 382.8 595.5 383.6C598.8 384.4 603.3 386.1 605.5 387.4C607.7 388.7 612.2 392 615.4 394.6C618.7 397.3 623.5 402.2 626.2 405.5C628.8 408.8 632.1 413.5 633.4 416C634.8 418.5 636.6 423.2 637.4 426.5C638.2 429.8 639.1 435 639.4 438C639.6 441 639.4 445.4 638.9 447.8C638.4 450.1 637.8 453.5 637.5 455.3C637.2 457 636.7 459.9 636.5 461.5C636.2 463.1 634.7 473.5 633.1 484.5C631.5 495.5 629.6 509.2 628.9 515C627.9 523.5 627.5 525.1 626.6 523.6C626 522.6 624.6 520.4 623.5 518.7C622.4 517 619.7 514.4 617.5 512.8C615.3 511.3 611.3 509.3 608.5 508.4C605.1 507.3 601.6 506.9 597.5 507.2C593.3 507.6 589.4 508.8 584.5 511.3C580.6 513.3 576.3 516.2 574.8 517.7C573.3 519.2 570.8 523 569.2 526C567.6 529 566 531 565.7 530.5C565.4 530 564.9 527.3 564.6 524.5C564.3 521.8 563.8 517.7 563.5 515.5C563.3 513.3 562.8 506.7 562.5 500.8C562.2 494.8 561.8 489.4 561.5 488.8C561.2 488.1 560.8 485.7 560.6 483.5C560.5 481.3 559 475.3 557.4 470.1C555 462.4 554.1 460.6 552 459.8C550.6 459.2 541.9 459.1 531.5 459.4C521.6 459.7 506.1 460.4 497 461C486.5 461.6 477.4 461.6 472 461C467.3 460.5 462.1 459.8 460.5 459.5C458.9 459.2 455.9 458.7 454 458.4C452.1 458.1 450.2 457.6 449.8 457.4C449.3 457.2 449.7 456.2 450.6 455.3C452.1 453.7 452.2 451.9 451.6 441.5C451.2 434.9 450.7 428.1 450.5 426.5C450.3 424.9 449.9 422.1 449.6 420.5C449.2 418.9 448.8 416.6 448.6 415.5C448.4 414.4 447.4 410.8 446.5 407.5C445.5 404.2 443.9 399.6 442.9 397.3C441.1 393.2 441.1 393 442.8 392.5C443.7 392.2 448.6 391.5 453.5 391C458.5 390.5 470.4 389.8 480 389.5C489.6 389.2 500.9 388.7 505 388.4C509.1 388.2 518.4 387.5 525.5 386.9C532.6 386.4 543.9 385.3 550.5 384.5Z" fill="#ED4A4A"/>
<path d="M811.8 384.8C811.7 384.5 813.2 383.3 815.1 382.1C817 381 819.1 380 819.7 380C820.7 380 820.6 380.9 819.4 383.2C818.5 385 817.5 387.6 817.3 389C817 390.4 816.6 391.9 816.3 392.5C816 393 814.9 391.7 813.8 389.5C812.8 387.3 811.9 385.2 811.8 384.8Z" fill="white"/>
<path d="M704.2 372.4C701.4 370.5 699.1 368.5 699.2 367.9C699.2 367.3 700 367.1 700.9 367.5C701.8 367.8 705.6 369 709.5 370.1C713.3 371.1 718 372 719.7 372C721.5 372 723 372.2 723 372.5C723 372.8 722 374.4 720.7 376C719.5 377.7 717.9 379 717.2 379C716.6 379 714.5 378.3 712.7 377.4C711 376.5 707.1 374.2 704.2 372.4Z" fill="#A3A0A0"/>
<path d="M750.3 371.5C752.6 371.2 756.4 369.6 758.8 368.1L763.1 365.4L764.8 372.4C765.8 376.3 767.6 381.5 768.9 384C770.1 386.5 772.2 389.5 773.3 390.7C774.5 392 775.3 393.2 775 393.5C774.7 393.8 773.4 393.2 772 392.2C770.6 391.3 768.3 389.8 766.8 389C765.3 388.2 763.8 387.8 763.5 388.2C763.2 388.7 765.8 394.3 769.2 400.7C774.1 410.2 776.9 414 782.9 420.2C788.9 426.2 792.3 428.7 799 431.9C803.7 434.2 809.1 436.3 811 436.6C813.8 437 815.4 436.5 819 434.2C821.5 432.5 824.8 429.9 826.4 428.3C827.9 426.8 831 422.4 833.3 418.5C835.5 414.6 840.8 404.5 845.1 396C849.3 387.5 853.6 378.3 854.6 375.7C855.7 373.1 856.8 370.9 857.3 371C857.7 371 858.1 372 858.3 373.2C858.4 374.5 858 379.1 857.3 383.5C856.6 387.9 854.9 395.5 853.5 400.5C852 405.4 849 413.3 846.7 418C844 423.6 840.4 428.7 836.5 432.8C832.4 437.2 828.3 440.3 823.5 442.7C816.5 446.2 816.5 446.2 813 444.5C811.1 443.5 806.6 440.6 803 438C799.4 435.4 793.6 431.4 790 429C786.4 426.6 783.3 424.4 783 424.1C782.7 423.8 780.7 422.3 778.5 420.8C776.3 419.3 771.4 414.9 767.5 411C763.7 407.1 760.3 403.9 760 403.9C759.7 404 757.5 404.7 755 405.5C752.5 406.4 747.2 408 743.3 409.1C739.2 410.1 731.1 411.2 714 412L712.9 407.7C712.3 405.4 712 402.6 712.2 401.5C712.4 400.1 713.4 399.4 715.5 399.2C717.2 399.1 721.4 398.2 725 397.3C728.8 396.4 734.1 394 737.8 391.6C741.2 389.3 744 387.2 744 386.7C744 386.3 743.7 385.8 743.3 385.6C742.8 385.4 739.6 384.9 736 384.6C732.4 384.2 727.4 383.3 720 381L722.9 377.2C725.694 373.508 725.799 373.5 735.04 372.805L735.1 372.8C740.5 372.4 745.1 371.6 745.9 370.8C747.1 369.7 747.3 369.7 746.8 370.9C746.3 371.9 747 372.1 750.3 371.5Z" fill="#D1D1D1"/>
<path d="M965.4 355.5C966.3 353.9 968 352 969.1 351.4C970.2 350.7 971.9 350.4 972.8 350.8C973.7 351.1 974.8 351.8 975.2 352.4C975.6 353 976 355 976 356.8C976 358.5 975.5 361 975 362.3C974.4 363.5 972.8 365.2 971.4 366C969.5 367.1 968.5 367.2 967.2 366.4C966.3 365.8 965.1 363.8 964.6 361.9C963.9 359.3 964.1 357.8 965.4 355.5Z" fill="#A3A0A0"/>
<path d="M849.1 314.8C850.1 312.8 851.6 311 852.2 310.7C852.9 310.4 854.6 310.1 856 310C857.4 310 859.1 310.6 859.7 311.5C860.8 312.8 860.6 313.2 858.2 314.4C856.7 315.1 855.2 316.5 854.7 317.4C854.2 318.6 855 319.8 861.1 324.5L859.5 332C858.6 336.1 857.6 340.4 857.4 341.5C857.1 342.6 856.6 349.2 856.2 356.2C855.8 364.2 855 369.4 854.2 370.2C853.5 370.9 853 372.1 853 372.8C853 373.4 850.9 378.4 848.4 383.8C845.8 389.1 843 395.1 842.1 397C841.1 398.9 837.9 405.1 834.9 410.8C831.9 416.5 827.9 423 826 425.3C824.1 427.5 820.5 430.6 818 432.1C815 434 812.6 434.7 811 434.4C809.6 434.1 804.7 432.1 800 429.8C793.3 426.6 789.9 424.1 784 418.1C778.5 412.5 775.4 408.3 772.2 402C769.9 397.3 768.2 393.3 768.5 393C768.8 392.7 769.8 393.2 770.7 394.1C771.7 395 775.2 397.1 778.5 398.9C781.8 400.6 785.1 402 785.7 402C786.4 402 787 401.9 787 401.8C787 401.6 784 398.4 780.2 394.5C776.5 390.6 772.4 385.5 771.2 383C770.1 380.5 768.4 375.8 767.5 372.5C766.7 369.2 766 364.8 766 362.8C766 360.7 765.5 359 765 359C764.4 359 763.3 360.4 762.5 362C761.7 363.6 759.3 365.8 757.2 366.9C755.2 367.9 752.1 369 750.5 369.4C748.8 369.7 744.9 370.2 741.7 370.5C738.6 370.8 734.9 370.8 733.5 370.5C731.1 370 731.1 369.9 732.7 368.3C733.6 367.3 736.5 365.1 739 363.5C741.5 361.9 744.5 359.9 745.5 359.2C746.6 358.5 750.3 356.6 753.7 355C757.2 353.3 762.8 351.3 766.2 350.5C771.8 349.3 773.4 349.3 780.5 350.6C784.9 351.5 790.2 352.8 792.2 353.6C794.3 354.4 796 355.4 796 356C796 356.6 796.7 357 797.5 357C798.3 357 800.2 359.1 801.7 361.8C804.1 365.9 804.5 367.6 804.5 375.2C804.5 383.9 804.5 384 807.4 385.2C809 385.9 810.9 387.9 811.8 389.5C812.6 391.3 813.4 396 813.5 401C813.7 405.7 814.2 409.6 814.7 409.8C815.1 409.9 816.4 405.2 817.6 399.3C818.7 393.3 820.5 386.7 821.5 384.5C822.5 382.3 826.2 376.8 829.7 372.3C833.2 367.7 836 363.8 836 363.5C836 363.2 837.6 360.4 839.7 357.3C841.7 354.1 844.8 348.4 846.7 344.5C848.5 340.6 850 336.6 850 335.5C850 334.4 849.2 331.5 848.1 329C847 326.3 846.4 323.3 846.7 321.5C847 319.9 848.1 316.9 849.1 314.8Z" fill="white"/>
<path d="M670.5 309.9C673.2 308.7 677.7 307.4 680.5 307C683.3 306.6 688.6 306.2 692.5 306.1C696.4 306.1 702.4 306.5 706 307.1C709.6 307.7 713 308.6 713.5 309C714 309.5 711.1 310.1 707 310.5C702.9 310.9 698.1 311.7 696.5 312.4C694.9 313.2 692.6 314.7 691.5 316C690.167 317.466 689.6 319.333 689.8 321.6C689.9 323.5 690.5 326 691.1 327.2C691.7 328.5 693.9 331.2 695.9 333.3C697.9 335.4 702 338.6 705 340.5C708 342.3 713.9 344.9 718 346.1C724.2 348.1 727.5 348.5 737.5 348.4C746.2 348.3 751.8 347.7 757.8 346.1C762.3 345 766.8 344 767.8 344C768.7 343.9 770.1 344.6 770.8 345.5C771.8 346.8 771.5 347.1 768.3 347.6C766.2 347.9 760.9 349.6 756.5 351.3C752.1 353 744.7 357 740 360.1C735.3 363.3 730.4 366.8 729 367.9C727.5 369.1 725 370 722.8 370C720.7 370 715.3 369.1 710.8 367.9C706.2 366.8 700.1 365 697.3 363.9C694.4 362.9 691.7 362.3 691.3 362.6C690.8 362.9 693 365.5 696.1 368.4C699.2 371.2 704.6 375.2 708.1 377.3C711.6 379.3 714.8 381.1 715.2 381.3C715.6 381.4 714.8 384.4 713.4 388C711.8 392 710.7 396.6 710.6 400C710.6 403 710.7 406.9 711 408.5C711.5 411.2 711.2 411.5 708.5 411.8C706.9 411.9 701 413 695.5 414.1C690 415.3 681.9 417.7 677.5 419.5C673.1 421.3 667 424.2 664 426C661 427.8 655 431.6 650.8 434.6C646.5 437.6 642.9 439.9 642.7 439.8C642.6 439.6 641.7 435.7 640.7 431C639.8 426.1 637.6 419.5 635.5 415.5C633.5 411.3 629.1 405.3 624.8 400.6C620.8 396.3 614.6 390.8 611 388.5C607.4 386.2 602.3 383.5 599.5 382.6C596.8 381.7 591.4 380.4 580.5 378.4L592 372.9C598.3 369.9 605.8 365.9 608.5 364.1C611.3 362.2 618 356.3 623.5 350.9C631.6 343.1 635 340.5 641.1 337.7C648.4 334.3 648.9 333.8 654.7 325.3C658 320.5 661.8 315.5 663.1 314.3C664.4 313.1 667.7 311.1 670.5 309.9Z" fill="#4E4E4E"/>
<path d="M852.8 306.9C852.7 306.6 853 306 853.5 305.7C854 305.3 854.9 305 855.7 305C856.4 305 859.2 306.1 862 307.5C864.7 308.9 867 310.2 867 310.5C867 310.8 866.1 313.5 865 316.5C863 321.9 862.9 322 860.5 320.8C859.1 320.1 858 318.9 858 318.3C858 317.6 859.1 316.8 860.5 316.5C862.4 316.1 863 315.4 863 313.3C863.1 311.7 862.3 309.7 861.3 308.7C860.1 307.5 858.4 307 856.3 307.2C854.5 307.4 852.9 307.2 852.8 306.9Z" fill="white"/>
<path d="M862.5 305.2C856.5 302.3 856.5 302.3 858.8 300.7C860.6 299.5 861.7 299.4 863.8 300.2C865.3 300.7 867.3 301.6 868.2 302.1C869.2 302.6 870 303.6 870 304.3C870 304.9 869.6 306.1 869.2 306.8C868.7 307.9 867.2 307.5 862.5 305.2Z" fill="white"/>
<path d="M599.4 302.5C599.7 299.2 600 296.1 600.1 295.5C600.1 294.9 600.6 295.9 601 297.5C601.5 299.1 602.8 304.8 604 310C605.2 315.2 606.6 319.9 607 320.5C607.4 321.1 609.7 321.8 612.1 322.3C614.5 322.7 620.3 323.1 625 323.1C630.5 323.2 635.6 322.6 639.5 321.4C643.5 320.2 647.166 318.167 650.5 315.3C653.2 312.9 657.7 309.9 660.5 308.5C663.2 307.2 667.5 305.8 674.5 305L669.5 307.5C666.7 308.8 662.4 312.1 659.7 314.7C657.1 317.3 655 319.8 655 320.2C655 320.7 653.4 323.4 651.5 326.2C649.5 329.4 646.4 332.5 643.8 334C640.4 335.9 638.1 336.5 632.5 336.5C628.6 336.5 623.5 336.1 621 335.7C618.5 335.2 613.6 334 603.5 331.1L601.1 319.8C599.4 311.7 598.9 306.8 599.4 302.5Z" fill="#D1D1D1"/>
<path d="M620.2 303.6C619.9 301 620.5 299.9 624.1 296.7C627.9 293.3 628.4 293.1 628.7 295C628.9 296.2 627.4 298.8 620.5 306.7L620.2 303.6Z" fill="#D1D1D1"/>
<path d="M945.5 289C948.8 287.1 954 284.5 957 283.3C960 282 963.1 281.1 963.9 281.3C964.7 281.4 965.5 281.9 965.7 282.5C965.9 283 964.1 284.1 961.8 284.9C959.4 285.6 955.3 287.4 952.5 288.7C949.8 290.1 944.4 293.5 940.6 296.4C936.8 299.2 931.7 303.7 929.2 306.5C926.8 309.2 922.8 314.6 920.4 318.5C918 322.4 914.5 329.1 912.6 333.5C910.7 337.9 907.9 346 906.4 351.5C904.2 359.6 903.6 363.7 903.6 373C903.5 382.3 904 385.9 905.8 392C907.1 396.1 909.3 401.4 910.6 403.7C911.9 406.1 913 408.4 913 409C913 409.667 912.333 409.667 911 409C909.9 408.4 907.8 405.4 906.3 402.2C904.9 399.1 903.1 394.2 902.3 391.5C901.6 388.7 900.7 382.9 900.4 378.5C900.1 374.1 900.3 367.1 900.8 363C901.4 358.9 903.1 351.4 904.5 346.5C905.9 341.6 909.3 333 912 327.5C914.7 322 919.1 314.6 921.8 311C924.5 307.4 929.6 301.8 933.1 298.5C936.6 295.2 942.2 290.9 945.5 289Z" fill="#A3A0A0"/>
<path d="M925 278.1C928.6 276.2 933.3 274.1 935.5 273.4C937.7 272.7 940.1 272.1 940.8 272.1C941.4 272 942.7 272.2 943.5 272.5C944.3 272.8 945 273.4 945 274C945 274.6 942.9 275.3 940.3 275.6C937.6 276 932.1 278 928 280.1C923.9 282.2 917.8 286.3 914.6 289.2C911.4 292.1 906.2 297.9 903.1 302C900 306.1 895.2 313.5 892.5 318.5C889.8 323.4 886.5 330.4 885.2 334C883.9 337.6 882.2 343 881.4 346C880.6 349 879.7 355.5 879.4 360.5C878.9 367.2 879.2 371.6 880.4 377.5C881.3 381.9 883.2 388.2 884.5 391.5C885.9 394.8 887 397.8 887 398.2C887 398.7 886.1 398.6 885 398C883.9 397.4 882.1 394.5 880.9 391.2C879.8 388.1 878.1 382.1 877.3 378C876.2 372.5 875.9 367.8 876.4 360.5C876.7 355 877.6 348 878.4 345C879.2 342 880.7 337 881.8 334C882.8 331 885.3 325.4 887.2 321.5C889.2 317.6 893.5 310.4 896.8 305.5C900.1 300.5 906.3 293.1 910.6 289C915 284.8 921.4 280 925 278.1Z" fill="#A3A0A0"/>
<path d="M926.2 157.2C926.9 157.2 929.5 156.4 932 155.2L936.5 153L936.7 155.8C936.8 157.3 937.1 182.8 937.5 266.6L925 262.5V209.8C925 168.1 925.3 157 926.2 157.2Z" fill="#4E4E4E"/>
<path d="M927 153.5C927 153.3 926.7 152.4 926.3 151.5C925.8 150.4 926.3 150.1 928.1 150.1C929.4 150.2 931.4 150.5 932.5 151C934.4 151.7 934.4 151.8 932.2 152.9C931 153.5 929.3 154 928.5 154C927.7 154 927 153.8 927 153.5Z" fill="#4E4E4E"/>
<path d="M596 144.5C599 142.9 604.2 140.8 607.5 139.8C610.8 138.9 614.4 138.3 615.5 138.5C616.6 138.7 619.5 139.7 626.5 142.7L619 143.3C614.9 143.7 609 144.8 606 145.8C603 146.8 598 149.3 595 151.2C592 153.2 587.2 157.2 584.4 160.2C581.7 163.1 577.6 168.2 575.3 171.5C573.1 174.8 569.6 180.8 567.6 184.7C565.6 188.7 562.7 195.9 561.1 200.7C559.5 205.6 557.6 213.3 557 218C556.3 222.9 556.1 229.5 556.5 233.5C556.9 237.3 558.1 243.4 559.2 247C560.3 250.6 562.3 255.6 563.6 258.2C564.9 260.9 565.9 263.4 565.8 263.8C565.6 264.3 564 264.1 562.3 263.3C559.5 262.2 558.6 260.9 556.1 254.2C554.5 250 552.7 243.1 552 239C551.2 234.5 551 228 551.3 222.5C551.7 217.6 552.8 210.1 553.9 206C555 201.9 557.5 194.7 559.5 190C561.5 185.3 565.3 177.9 567.8 173.5C570.8 168.4 575.7 162.3 581.5 156.5C586.7 151.2 592.8 146.2 596 144.5Z" fill="#A3A0A0"/>
<path d="M913.1 149.5C911.8 146.2 910.6 142 910.4 140.1C910 136.8 910.1 136.7 912.7 137.4C914.3 137.8 916.4 138.7 917.5 139.4C918.6 140.1 920.3 142.9 921.3 145.6C922.9 150.1 923 155.7 923 264L919.3 264.5C917.2 264.8 915.4 264.9 915.3 264.8C915.2 264.6 914.9 246.1 914.7 223.5C914.4 200.9 914.5 176.4 914.9 169C915.5 156.3 915.4 155.1 913.1 149.5Z" fill="#A3A0A0"/>
<path d="M568.6 137.8C572.4 135.1 578 132.1 581 131C584 130 588.2 129.1 590.3 129C592.3 129 595.6 129.8 601.2 132.5L593.4 133.6C588.6 134.2 582.9 135.8 579 137.7C575.4 139.3 570.3 142.5 567.5 144.7C564.8 146.9 560 152 556.9 156.1C553.7 160.2 549.2 167.3 546.7 172C544.1 176.7 540.5 185.2 538.6 191C536.7 196.8 534.6 205.4 534.1 210.2C533.3 216.2 533.3 221.7 534 227.2C534.5 231.8 535.8 238 536.8 241C537.9 244 539.4 248 540.4 249.7C541.3 251.5 542 253.4 542 254C542 254.6 540.8 254.5 538.8 253.7C536.5 252.8 535.1 251.3 533.8 248C532.7 245.5 531.2 240.8 530.4 237.5C529.5 234.2 528.6 228.1 528.3 224C528 219.9 528.3 212.7 529 208C529.6 203.3 531.5 195.7 533 191C534.5 186.3 537.9 178.2 540.5 173C543.1 167.8 546.9 161 549 158C551.1 155 554.8 150.2 557.2 147.5C559.7 144.7 564.8 140.4 568.6 137.8Z" fill="#A3A0A0"/>
<path d="M553.5 124.2C556.3 122.8 560.3 121.1 562.5 120.4C564.7 119.6 567.9 119.3 569.5 119.6C571.1 119.8 573.6 120.8 577.5 123.5L571.5 124.1C568.2 124.5 563 125.7 560 126.9C557 128 551.6 131 548.1 133.6C544.5 136.1 539.6 140.9 537.1 144C534.6 147.2 530.4 153.4 527.8 157.7C525.2 162 521.3 170 519.1 175.5C516.9 181 514.4 189 513.6 193.3C512.7 197.5 512 204.9 512 209.7C512 215 512.7 221.5 513.9 226C514.9 230.1 516.9 235.9 518.4 238.7C519.8 241.6 521 244.2 521 244.5C521 244.8 519.9 245 518.5 245C517 245 515.4 244.1 514.5 242.7C513.7 241.5 511.9 237.1 510.5 233C509.1 228.9 507.6 221.9 507.1 217.5C506.6 213.1 506.4 208.4 506.5 207C506.7 205.6 507.1 201.6 507.5 198C507.8 194.4 509.7 186.8 511.6 181C513.6 175.2 517.2 166.4 519.8 161.5C522.4 156.6 527.2 148.9 530.5 144.6C533.8 140.2 539.2 134.4 542.5 131.7C545.8 129 550.8 125.6 553.5 124.2Z" fill="#A3A0A0"/>
<path d="M927.9 147.3C927.6 146.9 930.4 137.4 934.2 126.3L941.2 106.1L944.8 107.6C946.9 108.5 949.1 109.5 949.8 109.8C950.5 110.2 950.9 111 950.7 111.5C950.4 112.1 948.6 117.9 946.5 124.5C944.4 131.1 941.6 139.4 937.5 149.3L933 148.7C930.5 148.4 928.2 147.7 927.9 147.3Z" fill="#4E4E4E"/>
<path d="M721.7 115C721.6 119.7 721.4 116.3 721.4 107.5C721.4 98.7002 721.6 94.9002 721.7 99.0002C721.9 103.1 721.9 110.3 721.7 115Z" fill="#D1D1D1"/>
<path d="M710.1 64.3997C711.8 64.3997 714 63.3997 715.2 62.1997C716.3 61.0997 717.7 60.2997 718.2 60.5997C718.9 60.8997 719.2 94.3997 719.1 154.6C719 243.1 718.9 248 717.2 247.5C716.3 247.2 713.7 246.2 707.3 243.5L706.7 156.5C706.4 108.7 706.4 68.3997 706.6 66.9997C707 64.9997 707.8 64.4997 710.1 64.3997Z" fill="#4E4E4E"/>
<path d="M694.1 54.5C692.4 49.5 691 45.4 690.9 45.4C690.8 45.3 692.5 45.6 694.6 46.1C696.8 46.6 698.8 47 699.3 47C699.7 47 701 49.1 702.1 51.8C704.2 56.4 704.3 57.5 704.9 149.3C705.3 210.8 705.2 242 704.5 242C704 242 702 241.4 700.2 240.7C697.8 239.8 696.9 238.9 696.9 237C696.8 235.6 696.9 196 697.1 63.5L694.1 54.5Z" fill="#A3A0A0"/>
<path d="M706.1 53.3C706.5 52.9 710 43.2 714 31.8C718 20.3 721.4 11 721.6 11C721.8 11 724.9 12.2 728.5 13.8C732.1 15.3 735 17 735 17.5C735 18.1 733.5 23 731.6 28.5C729.7 34 726.5 43 720.8 58.5L721.2 153.6C721.4 229.2 721.2 248.6 720.2 248.6C719.3 248.5 719 229.1 719 155C719 103.6 718.7 61.2 718.3 60.7C717.9 60.3 716.5 61 715.2 62.2C713.9 63.5 711.6 64.5 710 64.5C707.7 64.5 707 65 706.6 67C706.4 68.4 706.4 108.5 706.8 156.3C707.4 225.3 707.2 243 706.2 243C705.3 243 704.9 223.5 704.7 149.8L704.699 149.627C704.3 56.7996 704.299 56.4971 702.2 51.8C700.2 47.5 699.6 46.9 695.7 46.2C693.4 45.7 691.4 45.4 691.3 45.4C691.2 45.5 692.4 49.6 697.1 63.5L696.8 131.5C696.6 168.9 696.4 208.2 696.2 218.7C696.1 231.2 695.6 237.8 695 237.5C694.3 237.2 694 206.8 694.2 61.5L691.6 54C690.1 49.9 689 45.6 689 44.5C689 42.7 689.4 42.6 693 43.2C695.2 43.7 698.1 44.5 699.5 45C701 45.6 702.7 47.7 703.8 50C704.7 52.3 705.8 53.7 706.1 53.3Z" fill="black"/>
<path d="M710.9 61.8C709.4 62 708.2 61.6 707.8 60.6C707.2 59.3 707.8 59 710.5 59C712.8 59 713.9 59.4 713.7 60.2C713.5 60.9 712.3 61.6 710.9 61.8Z" fill="#4E4E4E"/>
<path d="M714.4 37C717.5 27.4 720.6 18.3 721.1 16.7C721.7 15.2 722.7 14 723.3 14C724 14 726.4 14.9 733 18L726.4 36.7C722.8 47.1 719.7 55.8 719.4 56.2C719.2 56.7 716.5 57 713.5 57C709.6 57 708.1 56.6 708.4 55.7C708.6 55.1 711.3 46.6 714.4 37Z" fill="#4E4E4E"/>
</svg>
