<svg class="tren-inferior-frontal" width="395" height="756" viewBox="0 0 395 756" fill="none" xmlns="http://www.w3.org/2000/svg">
    <path d="M82.8205 3.44667C83.3333 1.39647 89.8718 1.26833 194.615 1.01206L194.487 0.883918C255.769 0.755781 307.179 1.01206 308.974 1.39647C311.923 2.03716 312.308 3.06226 313.718 12.9289C314.615 18.8232 316.795 32.9184 318.718 44.1945C320.513 55.4706 323.974 73.6662 326.282 84.5579C328.59 95.4496 331.282 107.238 332.051 110.826C332.82 114.286 333.974 119.796 334.615 122.999C335.256 126.203 336.282 132.481 337.051 137.094C337.82 141.707 339.359 153.752 340.641 164.003C342.179 177.586 342.82 192.322 342.82 218.462C342.82 243.449 342.179 260.619 340.641 274.842C339.359 286.119 337.308 300.47 335.897 306.877C334.487 313.156 332.308 322.382 330.897 327.379C329.487 332.376 328.333 339.552 328.333 343.396C328.333 347.24 329.231 356.21 330.128 363.257C331.154 370.305 332.82 380.94 333.846 386.963C335 392.985 337.051 402.211 338.59 407.465C340 412.719 342.051 420.535 342.949 424.764C343.974 428.992 345.641 437.577 346.795 443.984C347.82 450.263 349.359 460.386 350.128 466.408C351.026 473.2 351.282 485.501 350.897 499.083C350.385 511.128 349.231 527.53 348.205 535.603C347.179 543.675 344.744 561.615 342.82 575.325C340.769 591.215 339.487 606.335 339.359 616.97C339.359 626.068 340 636.832 340.897 640.676C341.795 644.52 342.949 650.158 343.718 653.105C344.359 656.18 348.974 665.406 353.974 673.607C358.974 681.936 365.385 691.418 368.333 694.622C371.282 697.953 374.359 700.644 375 700.772C375.641 700.9 378.974 703.719 382.436 707.051C385.769 710.383 388.462 713.714 388.462 714.355C388.462 714.996 389.615 716.789 391.026 718.199C393.077 720.249 393.59 722.299 393.59 727.809C393.463 734.754 393.337 734.855 386.464 740.374L386.154 740.623C382.179 743.827 376.538 747.414 373.718 748.696C370.897 749.977 367.051 750.874 365 750.874C363.077 750.874 359.615 751.643 357.308 752.668C355.128 753.565 351.795 754.206 350 754.078C348.205 753.949 344.872 752.796 342.564 751.643C340.385 750.49 338.462 749.208 338.462 748.568C338.462 748.055 335 744.211 330.641 739.982C326.41 735.754 321.538 730.116 319.744 727.425C318.077 724.862 316.667 721.787 316.667 720.762C316.667 719.737 314.487 716.918 311.795 714.483C309.231 712.048 305.641 708.845 303.846 707.307C302.051 705.898 300.385 704.745 300 704.745C299.615 704.745 298.205 702.951 296.923 700.644C294.744 696.928 294.487 694.365 294.744 681.039C295 670.532 294.487 663.228 293.077 657.974C292.051 653.746 290.769 646.698 290.128 642.47C289.359 636.575 289.487 634.141 290.769 632.859C292.051 631.45 292.308 627.99 291.667 618.252C291.154 611.204 290.256 601.978 289.615 597.75C288.974 593.521 287.949 587.114 287.179 583.654C286.538 580.067 285.128 574.3 284.103 570.841C283.077 567.253 281.282 560.461 280.128 555.464C278.974 550.467 277.179 544.444 276.282 542.01C275.256 539.575 272.051 529.965 269.103 520.867C263.974 504.978 263.718 503.312 263.205 484.348C262.82 472.303 263.077 460.77 263.974 454.876C264.872 449.622 265.769 438.602 266.154 430.53C266.667 419.638 266.41 415.025 265.128 413.103C264.232 411.567 260.266 404.663 256.297 397.752L256.282 397.727C252.308 390.679 247.436 380.172 245.513 374.149C243.718 368.127 241.667 358.388 241.026 352.366C240.385 346.343 239.231 337.117 238.462 331.864C237.692 326.61 236.923 320.203 236.795 317.769C236.538 315.334 236.154 312.643 235.769 312.002C235.256 311.234 234.487 307.774 234.103 304.314C233.59 300.726 232.308 293.551 231.282 288.297C230.128 283.043 228.718 278.046 228.077 277.405C227.436 276.636 226.923 274.33 226.923 272.28C226.923 270.229 226.41 267.795 225.769 267.154C225.256 266.385 222.564 259.21 220 251.137C217.436 243.064 214.744 234.607 213.974 232.557C213.205 230.507 211.282 224.1 209.615 218.462C208.077 212.824 205.769 205.264 204.615 201.804C203.59 198.216 201.667 189.375 200.641 181.943C199.615 174.511 198.718 166.182 198.59 163.363C198.59 158.621 198.462 158.493 197.179 161.441C196.538 163.234 195.128 171.307 194.103 179.38C192.692 190.528 190.256 199.882 184.359 217.821C180.128 230.891 175.897 242.936 175 244.73C174.103 246.524 172.051 252.29 170.513 257.544C168.974 262.797 166.923 269.204 166.026 271.639C165.128 274.074 163.462 281.634 162.179 288.297C161.026 294.96 159.359 304.186 158.333 308.799C157.436 313.412 155.897 323.407 155.128 331.223C154.231 338.911 153.077 349.29 152.564 354.288C151.923 359.285 150 367.614 148.077 372.868C146.282 378.121 141.795 387.347 138.205 393.37C134.615 399.392 130.897 405.159 130.128 406.184C129.231 407.209 128.205 410.156 127.692 412.59C127.308 415.025 127.821 425.404 128.974 435.655C130.128 445.906 131.154 463.717 131.282 475.378C131.41 493.83 131.026 497.802 128.462 506.772C126.795 512.41 123.462 522.533 120.897 529.196C118.333 535.859 114.872 546.879 113.205 553.542C111.41 560.205 109.487 567.765 108.718 570.2C108.077 572.635 107.051 577.247 106.41 580.451C105.897 583.654 104.744 589.677 103.974 593.905C103.205 598.134 102.692 611.717 102.821 624.018C102.949 641.573 102.564 647.979 100.897 653.746C99.2308 659.384 98.8461 665.278 98.9743 677.707C99.359 692.828 99.1026 694.622 96.6667 697.953C95.1282 699.875 93.4615 701.541 92.9487 701.541C92.4359 701.541 88.9744 704.36 85.2564 707.948C81.4102 711.536 77.8205 716.277 77.0513 718.84C76.1538 721.659 70.7692 728.322 63.0769 736.395C56.282 743.57 50.1282 749.593 49.359 749.593C48.5897 749.721 46.6667 749.977 44.8718 750.105C43.0769 750.362 39.7436 749.721 37.4359 748.696C35.2564 747.799 31.282 747.03 28.8462 747.03C26.4103 747.03 24.1026 746.389 23.7179 745.749C23.3333 745.108 21.5385 744.211 19.4872 743.827C17.5641 743.442 13.0769 740.495 9.61538 737.292C6.02564 734.088 2.82051 731.525 2.17949 731.653C1.66667 731.653 1.02564 730.756 0.641026 729.731C0.25641 728.706 0 725.503 0 722.684C0 717.815 0.897437 716.661 15.5128 701.797C26.4103 690.778 33.2051 682.705 38.2051 674.632C42.0513 668.225 46.4103 661.05 47.8205 658.615C49.2308 656.18 51.1538 649.773 52.3077 644.52C53.3333 639.266 54.4872 626.196 54.7436 615.689C55.2564 600.056 54.6154 591.855 51.9231 571.481C50.1282 557.771 47.6923 539.831 46.6667 531.759C45.641 523.686 44.4872 507.541 43.9744 495.88C43.4615 481.913 43.7179 470.381 44.8718 461.924C45.641 454.876 47.8205 442.447 49.359 434.374C51.0256 426.301 53.2051 417.332 54.2308 414.513C55.2564 411.694 57.3077 403.493 58.8462 396.189C60.2564 389.013 62.4359 375.431 63.4615 366.076C64.359 356.851 65.3846 345.19 65.5128 340.193C65.7692 333.786 64.8718 328.02 62.4359 319.691C60.641 313.412 57.9487 300.086 56.5385 290.219C55.1282 280.352 53.2051 262.797 52.4359 251.137C51.5385 238.964 51.282 219.487 51.6667 205.007C52.1795 191.297 53.3333 173.101 54.359 164.644C55.3846 156.187 56.9231 145.295 57.6923 140.298C58.5897 135.3 60.641 123.512 62.4359 114.03C64.2308 104.547 66.1538 94.4245 66.6667 91.6054C67.1795 88.7864 68.2051 84.686 68.9744 82.6358C69.6154 80.4575 71.9231 68.4125 74.1026 55.7269C76.282 43.0412 78.9744 26.6396 80.1282 19.2076C81.282 11.7756 82.4359 4.72805 82.8205 3.44667Z" fill="black"/>
    <path d="M85.3844 16.0041C85.8972 13.1851 86.7946 10.1098 87.4357 9.21284C88.2049 8.44401 88.9741 7.67519 89.2305 7.67519C89.487 7.67519 93.9741 9.59725 98.9741 11.9037C104.102 14.2102 112.307 18.695 117.179 21.7703C123.59 25.9989 128.077 30.2274 133.59 37.4031C137.692 42.9131 142.948 51.242 145.384 55.9831C147.82 60.8524 152.307 72.1285 155.513 81.3544C158.59 90.5803 163.59 104.035 166.41 111.467C169.359 118.899 173.718 128.253 176.282 132.225C179.615 137.735 182.051 140.298 191.025 144.142V157.596C191.025 165.028 190.384 174.767 189.615 179.38C188.846 183.993 187.82 189.759 187.179 192.194C186.538 194.628 184.743 201.035 183.205 206.289C181.666 211.542 177.307 223.844 173.461 233.582C169.743 243.192 164.359 259.978 161.666 270.614C158.846 281.377 155.128 299.445 153.205 310.721C151.282 321.997 148.974 333.529 147.948 336.349C146.923 339.168 145.256 343.78 144.359 346.6C143.461 349.419 141.025 355.057 138.974 359.285C136.923 363.386 133.846 367.742 132.051 369.024C130.256 370.177 127.051 371.843 125 372.483C122.051 373.508 118.974 373.252 112.179 371.586C107.179 370.305 100.513 368.255 97.1793 366.973C93.8459 365.564 89.2305 362.745 87.0511 360.695C84.7434 358.644 80.8972 352.494 78.4613 347.24C76.0254 341.987 72.9485 335.323 71.6664 332.504C70.3844 329.685 68.3331 323.663 67.1793 319.05C66.0254 314.437 63.9741 304.955 62.5639 297.907C61.2818 290.86 59.3587 277.021 58.3331 267.154C57.3075 257.288 56.5382 236.785 56.5382 221.665C56.5382 206.545 57.3075 185.402 58.2049 174.895C59.2305 164.388 61.5382 146.961 63.3331 136.454C65.2562 125.946 69.1023 105.444 71.9229 90.9647C74.7434 76.4852 77.4357 64.1839 77.8203 63.4151C78.3331 62.6463 79.3587 57.2645 80.3844 51.242C81.41 45.2195 82.6921 35.9936 83.4613 30.74C84.1023 25.4863 84.9998 18.8232 85.3844 16.0041Z" fill="white"/>
    <path d="M276.282 22.7954C280.513 19.8483 288.59 15.3635 294.231 12.6726C299.872 9.98167 304.872 7.67519 305.384 7.67519C306.025 7.67519 306.923 8.70029 307.564 9.85353C308.205 11.1349 309.359 17.4137 310.256 23.6924C311.025 29.9712 312.307 37.6594 312.948 40.6066C313.59 43.6819 314.102 47.6542 314.102 49.5762C314.102 51.6264 315 56.3675 316.025 60.2117C317.051 64.0558 320 77.1258 322.436 89.0427C325 100.959 328.718 120.949 330.641 133.25C332.692 145.551 335.128 161.953 336.154 169.769C337.179 178.483 337.82 197.447 337.692 219.743C337.692 245.499 337.051 260.875 335.513 274.202C334.231 284.453 332.692 294.576 332.051 296.626C331.41 298.676 330.256 304.442 329.359 309.44C328.461 314.437 326.795 321.613 325.384 325.457C324.102 329.301 322.564 333.658 321.923 335.067C321.319 336.395 318.895 341.362 316.472 346.325L316.025 347.24C313.333 352.494 309.743 358.388 307.82 360.438C306.025 362.36 301.538 365.18 298.077 366.717C294.487 368.127 287.692 370.433 282.692 371.586C275.769 373.252 272.692 373.508 269.231 372.483C266.795 371.715 263.205 369.664 261.154 367.87C259.231 366.076 256.795 362.617 255.769 360.31C254.743 358.132 252.948 354.288 251.923 351.981C250.897 349.803 248.974 344.421 247.564 340.193C246.282 335.964 244.487 328.148 243.718 322.894C242.82 317.64 240.641 305.467 238.846 295.985C237.051 286.503 233.846 272.664 231.795 265.232C229.615 257.8 224.872 243.961 221.154 234.479C217.436 224.997 213.461 213.977 212.179 210.133C210.897 206.289 209.231 200.779 208.718 197.96C208.077 195.141 206.795 188.221 205.769 182.583C204.743 176.945 203.846 166.053 203.718 144.142L208.59 141.835C211.923 140.298 215 137.222 218.077 132.225C220.641 128.253 224.743 120.052 227.307 114.03C229.872 108.007 234.872 94.4244 238.461 83.9171C242.179 73.2817 246.666 61.2368 248.718 57.0082C250.641 52.7797 255.897 44.5789 260.384 38.6845C265.641 31.6369 271.282 26.127 276.282 22.7954Z" fill="white"/>
    <path d="M67.8203 372.227C69.3587 360.951 70.5126 350.828 70.5126 349.803C70.5126 348.778 72.9485 351.725 76.0254 356.466C78.9741 361.079 83.2049 366.333 85.2562 367.87C87.3075 369.536 93.4613 372.483 98.7177 374.534C106.025 377.481 110.641 378.378 118.077 378.506C126.923 378.634 128.333 378.25 133.333 374.79C136.41 372.611 139.872 369.408 140.897 367.486C142.051 365.436 143.333 363.898 143.846 363.898C144.487 363.898 144.872 363.001 144.872 361.976C144.872 360.951 145.384 360.054 146.154 360.054C146.795 360.054 147.051 361.079 146.666 362.232C146.282 363.514 144.487 368.511 142.692 373.508C140.897 378.378 136.666 387.091 133.333 392.729C129.872 398.367 125 405.415 122.307 408.49C119.487 411.565 114.359 415.409 110.897 417.203C107.179 418.997 102.307 420.279 99.3587 420.279C96.5382 420.279 92.1793 418.997 89.7434 417.588C87.1793 416.178 83.8459 412.462 81.9229 409.003C79.9998 405.671 76.2818 400.93 73.5895 398.367C70.769 395.933 67.8203 393.626 66.9229 393.242C65.3844 392.857 65.6408 389.141 67.8203 372.227Z" fill="white"/>
    <path d="M310.769 366.461C312.82 364.667 316.538 360.182 318.974 356.338C321.538 352.622 323.718 349.675 323.846 349.931C323.974 350.187 325.384 359.413 326.795 370.305C328.205 381.197 329.487 390.935 329.487 391.704C329.487 392.601 328.718 393.37 327.82 393.37C327.051 393.37 324.359 395.292 321.923 397.598C319.487 399.777 315.641 404.774 313.205 408.362C310.897 412.078 307.436 416.178 305.384 417.332C303.461 418.613 299.359 419.766 296.154 420.151C291.666 420.535 288.718 419.766 283.333 417.203C279.487 415.281 275.256 412.462 273.974 410.925C272.692 409.387 268.59 403.493 264.743 397.855C260.897 392.217 256.282 384.144 254.487 379.915C252.564 375.687 250.256 369.921 249.231 367.102C248.333 364.283 247.436 361.079 247.436 360.054C247.307 359.029 249.231 360.951 251.666 364.539C254.102 367.999 258.461 372.611 261.41 374.79C266.41 378.25 267.82 378.634 276.666 378.506C284.872 378.378 288.333 377.609 296.795 374.021C302.436 371.715 308.718 368.255 310.769 366.461Z" fill="white"/>
    <path d="M59.7434 411.309C61.5382 406.055 63.3331 400.93 63.7177 399.905C64.3587 398.495 64.8716 398.495 67.1793 400.161C68.7177 401.186 72.8203 406.312 76.2818 411.437C80.8972 418.229 84.1023 421.56 87.8203 423.354C90.6408 424.764 94.9998 426.045 97.4357 426.429C99.8716 426.686 104.743 426.045 108.333 424.764C111.795 423.61 116.154 421.432 117.948 420.151C119.743 418.741 121.538 417.588 122.051 417.716C122.692 417.716 123.077 420.919 123.077 424.764C123.077 428.608 124.102 439.115 125.256 448.085C126.538 457.182 127.564 470.765 127.564 478.581C127.564 489.345 126.795 495.239 124.487 503.568C122.82 509.591 120.641 516.766 119.615 519.585C118.59 522.404 117.179 525.864 116.538 527.274C116.025 528.683 113.461 536.115 110.897 543.932C108.333 551.62 104.615 566.484 102.564 576.863C100.384 587.37 98.7177 599.159 98.5895 603.131C98.5895 607.232 98.0767 613.382 97.6921 616.97C96.9229 622.865 96.2818 623.761 90.3844 627.734C84.487 631.706 83.3331 631.962 75.6408 631.45C71.0254 631.193 65.8972 630.04 64.1023 629.015C61.0254 627.093 60.8972 626.196 59.9998 611.716C59.487 603.388 58.2049 587.498 57.1793 576.607C56.0254 565.715 54.487 553.542 53.8459 549.698C53.2049 545.854 52.0511 536.884 51.2818 529.836C50.5126 522.789 49.3587 512.666 48.7177 507.412C47.9485 502.159 47.4357 494.342 47.4357 490.114C47.4357 485.885 48.3331 473.712 49.3587 463.205C50.5126 452.569 52.1793 441.037 53.0767 437.577C54.1023 433.989 55.2562 428.864 55.769 426.045C56.1536 423.226 58.0767 416.563 59.7434 411.309Z" fill="white"/>
    <path d="M318.205 411.95C318.333 411.181 320.897 407.721 324.102 404.262C328.461 399.136 329.872 398.239 330.769 399.777C331.41 400.802 333.59 408.362 335.641 416.435C337.692 424.507 340.128 434.374 340.897 438.218C341.795 442.062 343.333 451.929 344.231 460.001C345.256 468.074 346.025 481.657 346.025 490.114C346.154 498.571 345.513 512.41 344.872 520.867C344.102 529.324 342.948 539.062 342.307 542.65C341.538 546.11 339.615 560.59 337.82 574.685C336.025 588.78 334.102 607.488 333.59 616.201C332.82 630.168 332.436 632.09 330.128 633.372C328.718 634.012 324.102 634.909 319.872 635.294C313.333 635.806 311.154 635.294 305.384 632.475C301.795 630.681 298.461 628.118 298.077 626.837C297.82 625.684 296.923 617.867 296.154 609.538C295.513 601.337 293.718 588.395 292.179 580.707C290.641 573.147 288.974 565.843 288.461 564.434C287.948 563.024 285.641 555.848 283.333 548.416C281.025 540.984 277.82 531.502 276.282 527.274C274.615 523.045 272.051 514.716 270.513 508.694C268.974 502.671 267.436 492.933 267.051 486.91C266.666 480.119 267.179 470.509 268.461 461.283C269.615 453.21 271.025 440.012 271.538 432.067C272.051 424.251 272.564 417.716 272.692 417.716C272.948 417.716 274.615 418.869 276.538 420.151C278.59 421.56 282.692 423.482 285.897 424.635C289.102 425.789 293.077 426.686 294.872 426.686C296.666 426.686 300.641 425.789 303.846 424.764C307.179 423.482 311.41 420.663 313.718 417.972C316.025 415.41 318.077 412.59 318.205 411.95Z" fill="white"/>
    <path d="M74.9998 636.447C84.1023 636.96 85.8972 636.575 91.0254 633.884L91.3585 633.711C94.4325 632.113 97.1971 630.676 97.6921 630.553C98.3331 630.553 98.7177 632.603 98.7177 635.166C98.7177 637.857 97.5639 645.16 96.2818 651.567C94.487 660.537 94.1023 666.303 95.2562 691.29L85.3844 699.619C78.5895 705.257 75.128 709.101 74.6152 711.664C74.1023 713.586 72.9485 715.893 72.0511 716.789C71.1536 717.558 70.3844 718.968 70.5126 719.737C70.5126 720.634 64.8716 726.912 57.9485 733.576C50.3844 741.136 44.487 745.749 42.9485 745.749C41.5382 745.749 38.9741 744.852 37.1793 743.827C35.3844 742.801 32.5639 742.033 30.769 741.904C28.9741 741.904 24.6152 740.367 21.1536 738.573C17.5639 736.779 12.5639 733.319 9.87157 730.885C5.5126 726.912 5.25619 726.144 5.89721 721.659C6.53824 717.815 9.10234 714.483 20.3844 703.463C30.2562 693.597 36.0254 686.549 41.7946 677.195L42.9294 675.36C46.9485 668.86 51.03 662.26 52.4357 660.153C53.9741 657.974 55.6408 652.977 56.41 649.261C57.0511 645.673 58.0767 640.804 58.7177 638.754C59.6152 635.935 60.5126 635.038 62.3075 635.294C63.5895 635.55 69.3587 636.063 74.9998 636.447Z" fill="white"/>
    <path d="M298.077 653.746C297.051 648.748 296.154 642.213 296.154 639.394L296.282 634.269L302.948 637.6C308.846 640.547 310.769 640.932 319.872 640.419C325.513 640.163 331.025 639.522 332.051 639.01C333.59 638.241 334.487 640.035 336.41 647.979C337.82 653.489 340.384 660.537 342.179 663.74C343.974 666.944 347.436 672.71 350 676.554C352.436 680.398 355.384 685.268 356.41 687.446C357.436 689.496 365 697.825 373.205 706.026C385.384 718.071 388.205 721.659 388.846 725.503C389.615 729.988 389.359 730.757 384.872 734.729C382.307 737.163 377.179 740.623 373.718 742.417C370.128 744.211 365.513 745.749 363.461 745.749C361.41 745.749 358.461 746.646 357.051 747.671C355.641 748.824 353.205 749.593 351.538 749.593C349.743 749.593 344.615 745.62 336.795 737.676C328.59 729.603 323.846 723.709 321.538 718.84C319.615 714.739 315.513 709.229 311.666 705.641C308.077 702.31 304.487 699.619 303.846 699.619C303.205 699.619 301.923 698.338 301.154 696.672C300.256 695.006 299.743 687.702 299.872 678.476C300 668.738 299.359 659.64 298.077 653.746Z" fill="white"/>
    <path fill-rule="evenodd" clip-rule="evenodd" d="M197.436 2.5498C264.487 2.5498 300.256 2.93422 300.641 3.83118C301.025 4.60001 300.384 5.36884 299.359 5.75325C298.333 6.13766 297.692 5.88139 298.077 5.11256C298.461 4.2156 264.487 3.83118 197.436 3.83118C141.795 3.83118 96.1536 4.08746 96.1536 4.47187C96.1536 4.85628 98.3331 6.2658 101.025 7.67531C103.59 8.95669 105.256 10.1099 104.487 10.1099C103.718 10.1099 101.025 8.82855 98.4613 7.2909C95.8972 5.75325 93.9741 4.08746 94.3587 3.57491C94.7434 2.93422 141.154 2.5498 197.436 2.5498ZM306.282 7.03463L308.205 9.59738C309.231 11.0069 310.513 15.3636 310.897 19.2077C311.282 23.0518 311.41 26.5116 311.025 26.896C310.769 27.2804 310 24.0769 309.615 19.8484C309.102 15.6199 308.205 11.0069 307.436 9.59738L306.282 7.03463ZM119.743 22.1549C123.59 24.5895 129.359 30.3557 133.718 35.9938C137.82 41.2474 142.564 48.1668 144.359 51.4984C146.025 54.9581 147.179 57.649 146.923 57.649C146.538 57.649 145.128 55.3426 143.718 52.5235C142.307 49.7045 137.692 42.9132 133.59 37.4033C128.846 31.1245 123.846 25.999 119.487 23.4363C115.897 21.1298 112.948 18.9514 112.948 18.567C112.948 18.1826 116.025 19.7203 119.743 22.1549ZM281.795 18.0545C281.923 17.9263 282.179 18.1826 282.179 18.567C282.179 18.9514 279.102 21.1298 275.384 23.4363C270.897 26.2553 266.025 31.1245 261.025 37.9158C256.795 43.4257 252.82 48.5513 252.179 49.3201C251.538 50.0889 252.179 48.5513 253.59 46.1166C255.128 43.682 258.846 38.1721 261.923 34.0717C265.384 29.4587 270.256 24.8458 274.487 22.283C278.333 19.9765 281.666 18.0545 281.795 18.0545V18.0545ZM270.256 20.4891C270.513 20.4891 267.307 24.2051 263.205 28.818C259.231 33.431 255.513 37.2751 255.256 37.2751C254.872 37.2751 256.025 35.6093 257.692 33.6873C259.487 31.6371 262.948 27.9211 265.384 25.2302C267.82 22.6674 270 20.4891 270.256 20.4891V20.4891ZM83.0767 29.4587C83.3331 31.2527 82.5639 37.2751 81.5382 42.9132C80.3844 49.1919 79.8716 50.6015 80.2562 46.7573C80.5126 43.1695 81.2818 37.147 81.7946 33.3029C82.3075 29.3306 82.9485 27.6648 83.0767 29.4587ZM312.051 28.1774C312.307 28.5618 312.948 32.2778 313.333 36.5063C313.846 41.5037 313.718 43.0413 312.948 40.9911C312.307 39.1972 311.795 35.4812 311.666 32.6622C311.666 29.8431 311.795 27.7929 312.051 28.1774ZM243.077 58.0334C243.077 58.2897 239.487 68.9252 235 81.4827C230.513 94.0402 226.538 104.676 226.154 105.06C225.641 105.444 225.641 104.804 226.025 103.779C226.282 102.754 230.256 91.8618 234.743 79.6887C239.231 67.5156 242.948 57.7772 243.077 58.0334ZM76.1536 66.6187C76.2818 66.6187 75.769 70.8472 74.8716 75.8446C73.8459 80.9701 71.1536 95.0653 68.7177 106.982C66.1536 118.899 64.487 126.203 64.8716 122.999C65.2562 119.796 67.5639 106.598 70.128 93.5276C72.5639 80.4576 74.8716 69.0533 75.128 68.1563C75.3844 67.3875 75.8972 66.6187 76.1536 66.6187V66.6187ZM239.231 79.945C239.231 80.2013 236.795 87.8895 233.59 96.8592C230.513 105.957 227.179 114.798 226.154 116.592C225 118.514 224.615 118.771 225.128 117.233C225.641 115.824 228.974 106.726 232.564 97.1155C236.154 87.377 239.102 79.6887 239.231 79.945ZM162.051 85.8393C162.436 86.2238 164.872 92.5025 167.692 99.9345C170.513 107.366 173.205 114.542 173.718 115.952C174.231 117.361 173.59 116.849 172.436 114.67C171.154 112.492 168.333 105.444 165.897 98.9094C163.59 92.5025 161.538 86.7363 161.538 86.0956C161.538 85.5831 161.795 85.4549 162.051 85.8393V85.8393ZM326.41 102.497C327.436 106.341 328.461 112.364 328.846 115.952C329.231 119.796 328.59 117.874 327.051 110.826C325.641 104.547 324.615 98.3968 324.615 97.3717C324.743 96.3466 325.513 98.6531 326.41 102.497ZM167.179 109.545C167.82 109.929 168.205 110.826 168.205 111.595C168.077 112.236 170 116.977 172.436 121.974C174.872 127.1 178.077 133.378 179.615 135.813C182.179 139.913 182.179 140.042 179.743 137.094C178.333 135.301 175.641 131.328 173.974 128.125C172.179 124.921 169.743 119.283 168.461 115.567C167.179 111.851 166.538 109.032 167.179 109.545V109.545ZM330.256 123.64C330.513 124.409 331.923 131.841 333.333 140.298C334.743 148.755 336.154 160.287 336.538 165.925C337.051 175.536 337.051 175.408 335.384 162.722C334.359 155.29 332.692 144.014 331.538 137.735C330.513 131.456 329.615 125.306 329.615 124.281C329.743 123.256 330 122.871 330.256 123.64ZM63.9741 130.047C64.1023 130.303 63.5895 135.429 62.8203 141.195C61.9229 147.089 60.769 152.984 60.128 154.393C59.1023 156.571 59.1023 156.443 59.6152 153.752C59.8716 151.958 60.8972 145.808 61.7947 140.042C62.8203 134.275 63.7177 129.791 63.9741 130.047ZM205.769 142.22C206.538 142.22 206.41 142.732 205.384 143.245C204.102 143.886 203.846 148.242 204.231 162.722C204.487 172.973 204.231 179.892 203.718 178.099C203.333 176.305 202.692 167.976 202.564 159.39C202.307 150.933 202.692 143.501 203.333 143.117C203.846 142.604 205 142.22 205.769 142.22V142.22ZM56.1536 205.648C56.41 212.696 56.41 223.972 56.1536 230.635C55.8972 237.298 55.769 231.532 55.769 217.821C55.769 204.11 55.8972 198.601 56.1536 205.648ZM339.487 205.648C339.743 212.696 339.743 223.972 339.487 230.635C339.231 237.298 339.102 231.532 339.102 217.821C339.102 204.11 339.231 198.601 339.487 205.648ZM180.256 217.181C180.256 217.437 177.179 226.022 173.461 236.273C169.743 246.524 166.795 255.366 166.795 255.878C166.795 256.519 165.897 260.107 164.743 263.951C163.718 267.795 162.564 270.742 162.307 270.358C162.051 269.973 162.948 265.745 164.231 260.747C165.513 255.75 169.743 243.833 173.461 234.223C177.051 224.613 180.128 216.924 180.256 217.181ZM337.692 242.808L338.205 249.856C338.461 253.7 337.692 264.976 336.666 274.843C335.513 284.709 334.102 294.832 333.461 297.267C332.82 299.701 331.666 305.211 330.897 309.44C330 313.668 328.205 320.844 326.795 325.457C325.384 330.07 323.974 333.53 323.718 333.145C323.461 332.761 324.231 329.301 325.513 325.457C326.795 321.613 328.589 314.437 329.487 309.44C330.384 304.442 331.538 298.42 332.307 295.985C332.948 293.551 334.359 283.94 335.384 274.843C336.41 265.745 337.307 254.725 337.436 250.496L337.692 242.808ZM230.384 260.107C231.41 263.31 233.59 271.639 235.384 278.687C237.179 285.734 238.461 292.654 238.461 294.063C238.461 295.473 236.923 290.603 235.256 283.171C233.59 275.739 231.282 267.154 230.256 263.951C229.102 260.747 228.333 257.288 228.333 256.263C228.461 255.237 229.359 256.903 230.384 260.107V260.107ZM60.2562 285.094C60.769 286.503 61.6664 290.475 62.0511 294.063C62.5639 298.035 62.4357 299.189 61.7947 297.267C61.2818 295.473 60.3844 291.5 59.9998 288.297C59.487 284.837 59.6152 283.556 60.2562 285.094ZM64.8716 308.799C65.8972 312.643 66.6664 316.744 66.5382 317.769C66.5382 318.794 65.769 316.744 64.7434 313.284C63.7177 309.696 62.9485 305.724 63.0767 304.314C63.0767 302.905 63.9741 304.955 64.8716 308.799ZM319.872 340.833C320.128 340.833 318.461 344.678 316.154 349.419C313.718 354.288 310.641 359.413 309.231 360.951C307.692 362.617 304.359 364.923 301.666 366.333C299.102 367.614 295.384 369.024 293.718 369.536C291.923 369.921 293.59 368.896 297.564 367.102C301.41 365.18 305.897 362.489 307.564 360.951C309.231 359.413 312.564 354.288 315 349.419C317.436 344.678 319.615 340.833 319.872 340.833V340.833ZM323.718 344.678C324.102 344.678 324.487 345.703 324.359 346.856C324.359 348.137 322.82 350.956 321.025 353.007C319.231 355.057 318.333 355.697 319.102 354.288C319.743 352.878 321.025 350.188 321.795 348.137C322.564 346.215 323.461 344.678 323.718 344.678ZM70.769 345.959C71.41 345.959 73.3331 349.034 75.2562 352.622C77.0511 356.338 78.0767 358.901 77.4357 358.26C76.9229 357.748 75.128 355.185 73.5895 352.494C71.9229 349.931 70.6408 348.778 70.6408 349.803C70.6408 350.828 69.3588 360.951 67.9485 372.227C65.769 389.141 65.5126 392.857 66.9229 393.242C67.9485 393.626 71.2818 396.445 80.2562 405.287L74.3588 400.289C71.1536 397.598 67.4357 394.779 66.1536 394.011C63.9741 392.729 63.9741 391.96 65.8972 377.353C67.0511 368.896 68.2049 358.388 68.7177 353.904C69.2305 349.547 70.128 345.959 70.769 345.959V345.959ZM144.615 348.522C144.743 349.291 144.102 351.725 142.948 353.904C141.923 356.21 141.154 358.645 141.154 359.413C141.154 360.182 138.718 363.386 135.769 366.717C132.692 370.177 129.102 372.868 127.692 372.868C125.769 372.868 126.282 372.227 129.487 370.561C131.923 369.408 135.128 366.333 136.666 363.898C138.077 361.464 140.513 356.723 141.795 353.391C143.077 350.059 144.359 347.881 144.615 348.522ZM251.025 350.316C251.538 350.572 252.82 353.263 253.974 356.21C255 359.285 257.82 364.026 264.487 372.227L259.487 366.974C256.795 364.026 253.59 359.029 252.307 355.697C251.154 352.494 250.513 350.059 251.025 350.316ZM148.205 354.16C148.333 354.416 148.205 355.954 147.948 357.363C147.692 358.901 146.923 360.054 146.282 360.054C145.513 360.054 145 360.951 145 361.976C145 363.001 144.487 363.898 143.974 363.898C143.461 363.898 142.179 365.436 141.025 367.486C139.872 369.408 136.538 372.74 133.461 374.79C128.333 378.25 126.923 378.634 118.205 378.506C112.051 378.378 106.795 377.609 103.974 376.199C101.41 375.046 100.641 374.406 102.051 374.918C103.461 375.303 107.436 376.199 111.025 376.84C114.487 377.481 120 377.609 123.205 377.225C126.282 376.712 130.641 375.174 132.82 373.765C134.872 372.227 137.307 370.177 138.333 369.024C139.231 367.999 141.795 364.026 143.974 360.31C146.154 356.594 148.077 353.775 148.205 354.16ZM248.205 355.569C249.231 356.979 250.128 358.516 250.128 359.029C250.128 359.67 251.666 362.489 253.718 365.436C255.769 368.511 259.615 372.355 262.436 374.149C266.666 376.84 268.846 377.353 277.051 377.225C283.59 377.096 288.846 376.199 293.718 374.277C297.564 372.74 300.897 371.715 301.025 371.843C301.282 372.099 297.82 373.637 293.333 375.431C287.564 377.609 282.82 378.506 276.154 378.634C267.948 378.634 266.41 378.25 261.538 374.79C258.59 372.74 253.846 367.742 251.154 363.898C248.461 360.054 246.282 355.954 246.282 354.929C246.282 353.519 246.795 353.647 248.205 355.569ZM327.051 363.258C327.692 366.077 328.205 370.433 328.205 372.868C328.333 375.303 328.077 377.096 327.82 376.712C327.564 376.328 327.051 372.099 326.666 367.102C326.025 360.182 326.154 359.285 327.051 363.258ZM82.9485 364.283C85.6408 366.974 90.3844 370.049 93.3331 371.33C96.2818 372.483 98.5895 373.637 98.4613 373.893C98.3331 374.149 95.8972 373.38 93.0767 372.227C90.2562 371.074 86.41 368.896 84.7434 367.486C82.9485 366.077 80.6408 363.642 79.7434 362.104C78.7177 360.695 80.128 361.592 82.9485 364.283V364.283ZM146.923 363.001C146.923 363.258 145.641 367.742 143.846 372.996C142.179 378.25 139.872 384.272 138.718 386.322C137.564 388.373 134.359 393.498 131.795 397.598C129.102 401.571 126.666 404.902 126.41 404.902C126.025 404.902 128.846 399.905 132.564 393.626C136.41 387.476 141.154 377.993 143.205 372.483C145.128 366.974 146.795 362.745 146.923 363.001V363.001ZM329.615 382.478C330.256 385.297 330.769 388.885 330.769 390.551C330.897 392.473 329.615 394.011 326.666 395.548C322.82 397.47 322.692 397.47 324.487 395.42C325.513 394.267 327.051 393.242 327.948 393.37C329.102 393.37 329.487 391.192 328.974 385.297C328.461 378.506 328.59 378.122 329.615 382.478V382.478ZM258.718 388.885C259.231 389.654 261.923 393.626 264.615 397.855C267.436 402.083 270.897 406.953 272.307 408.746C274.487 411.181 274.615 411.437 272.692 410.028C271.282 409.003 267.436 403.877 263.974 398.752C260.641 393.754 257.82 389.141 257.82 388.629C257.82 387.988 258.205 388.244 258.718 388.885V388.885ZM66.1536 398.495C66.7946 398.495 68.3331 399.264 69.487 400.161C70.6408 401.058 73.5895 404.902 76.0254 408.746C78.5895 412.591 82.1793 417.204 83.9741 418.997C85.8972 420.791 88.9741 422.97 90.8972 423.739C94.2305 425.404 94.2305 425.404 91.1536 424.636C89.3587 424.251 86.6664 423.098 84.9998 422.073C83.4613 421.048 79.3588 416.178 76.0254 411.053C72.6921 406.056 68.8459 401.186 67.4357 400.161C66.0254 399.264 65.3844 398.495 66.1536 398.495V398.495ZM328.205 398.495C328.718 398.495 326.538 401.186 323.59 404.646C320.513 407.978 318.077 411.181 318.077 411.95C318.077 412.719 315.769 415.666 312.948 418.741C310.128 421.688 307.179 424.123 306.538 424.123C305.769 424.123 304.231 424.507 302.948 424.892C301.795 425.276 302.436 424.636 304.615 423.354C306.666 422.201 310 419.766 312.051 417.844C314.102 416.05 316.41 412.719 317.307 410.669C318.205 408.618 320.769 404.902 323.077 402.596C325.384 400.418 327.692 398.495 328.205 398.495ZM331.666 398.495C332.051 398.495 333.461 402.34 334.872 407.209C336.154 411.95 337.179 416.691 337.179 417.716C337.179 418.741 335.641 415.025 333.974 409.387C332.307 403.749 330.897 399.008 330.897 398.88C330.897 398.624 331.154 398.495 331.666 398.495ZM124.743 406.312C125.128 406.184 123.974 408.234 122.179 410.669C120.256 413.103 117.948 415.153 117.051 415.153C116.154 415.153 115.513 415.666 115.513 416.435C115.513 417.204 112.692 418.613 109.359 419.638C106.025 420.663 101.282 421.56 98.8459 421.56C96.2818 421.56 92.0511 420.151 89.2305 418.357C86.41 416.691 84.487 415.153 84.9998 415.153C85.5126 415.153 87.8203 416.307 90.128 417.716C92.4357 419.126 96.5382 420.279 99.487 420.279C102.564 420.279 107.307 418.869 111.538 416.819C115.384 414.769 119.743 411.694 121.154 409.772C122.564 407.849 124.231 406.312 124.743 406.312ZM311.025 412.591C311.154 412.591 311.154 413.359 310.897 414.256C310.641 415.025 308.205 417.075 305.513 418.613C302.307 420.535 298.718 421.432 289.231 421.304L295.641 420.279C299.102 419.766 303.205 418.741 304.615 418.1C306.025 417.332 307.948 415.794 308.846 414.641C309.872 413.488 310.769 412.591 311.025 412.591V412.591ZM271.666 425.404C271.923 427.198 271.41 435.912 270.384 444.881C269.487 453.851 268.59 461.027 268.333 460.899C268.205 460.77 268.718 452.057 269.615 441.422C270.513 430.914 271.41 423.61 271.666 425.404V425.404ZM123.59 424.123C123.846 424.507 124.487 430.017 124.872 436.296C125.384 444.753 125.256 446.163 124.487 441.422C123.846 437.962 123.333 432.452 123.205 429.248C123.205 426.045 123.333 423.739 123.59 424.123ZM346.41 465.768C346.923 469.356 347.307 480.888 347.307 491.395C347.307 502.031 347.179 509.975 346.923 509.335C346.666 508.694 346.282 497.161 345.897 483.707C345.641 470.253 345.897 462.18 346.41 465.768V465.768ZM267.564 462.949C267.692 463.077 267.436 469.868 266.795 477.941C266.025 490.114 265.769 491.139 265.641 483.707C265.513 478.71 265.897 472.046 266.41 468.715C266.923 465.383 267.436 462.821 267.564 462.949ZM268.077 497.161C268.59 499.596 269.359 503.697 269.872 506.131C270.513 509.847 270.256 509.591 268.718 504.85C267.692 501.646 266.795 497.674 266.923 495.88C267.051 493.317 267.307 493.574 268.077 497.161ZM112.436 539.959C112.436 540.216 110.897 546.751 108.974 554.439C106.923 561.999 104.359 573.403 103.333 579.81C102.179 586.217 101.025 591.599 100.641 591.983C100.256 592.368 99.9998 591.983 99.9998 591.343C99.9998 590.702 100.897 585.192 102.051 579.17C103.205 573.147 105.897 561.871 108.205 553.926C110.384 545.982 112.307 539.703 112.436 539.959V539.959ZM343.333 540.728C343.461 541.753 342.564 549.826 341.154 558.668C339.743 568.022 338.974 571.225 339.231 566.356C339.615 561.743 340.513 553.67 341.41 548.417C342.307 543.163 343.077 539.703 343.333 540.728ZM53.8459 548.417C54.487 550.211 54.9998 553.927 55.128 556.746C55.2562 559.565 54.9998 561.615 54.7434 561.23C54.487 560.846 53.9741 557.13 53.4613 552.901C53.0767 547.904 53.2049 546.366 53.8459 548.417ZM337.948 576.351C338.077 577.248 337.692 582.757 337.051 588.524C336.41 594.29 335.513 606.463 335 615.561C334.487 624.53 333.718 632.091 333.461 632.347C333.077 632.603 333.205 626.068 333.589 617.867C334.102 609.538 335.256 596.468 336.025 588.78C336.923 581.092 337.82 575.454 337.948 576.351V576.351ZM293.077 585.577C294.102 590.189 294.743 595.315 294.743 597.109C294.743 598.903 293.846 596.34 292.948 591.343C292.051 586.345 291.282 581.22 291.41 579.81C291.41 578.401 292.179 580.964 293.077 585.577V585.577ZM297.051 620.174C297.436 621.968 297.82 624.659 298.205 626.196C298.59 628.118 301.025 630.297 304.872 632.347C308.205 634.013 310.513 635.422 310 635.55C309.487 635.55 306.795 634.397 303.974 632.988C301.154 631.578 298.205 629.272 297.564 627.862C296.795 626.452 296.282 623.377 296.41 621.071C296.538 617.739 296.666 617.611 297.051 620.174ZM98.2049 629.784C98.8459 629.912 99.487 632.859 99.7434 642.598L99.2305 636.447C98.9741 633.116 98.3331 630.553 97.8203 630.809C97.3075 631.065 93.9741 632.475 90.5126 634.141C84.8716 636.832 82.8203 637.088 73.8459 636.319C68.2049 635.935 62.5639 635.422 61.2818 635.294C59.9998 635.166 59.6152 634.525 60.3844 633.884C61.0254 633.372 63.0767 633.5 64.8716 634.269C66.5382 634.91 71.9229 635.55 76.6664 635.55C83.3331 635.55 86.6664 634.91 91.1536 632.603C94.2305 630.809 97.4357 629.656 98.2049 629.784V629.784ZM296.923 632.988C297.948 632.988 298.718 633.628 298.461 634.397C298.333 635.038 297.692 635.294 296.923 634.653C296.154 634.013 296.025 636.832 296.666 642.598C297.179 647.595 297.82 653.361 298.077 655.412C298.461 657.462 297.948 656.309 296.923 652.849C296.025 649.261 295.128 643.367 295.128 639.651C295 634.525 295.384 632.988 296.923 632.988V632.988ZM304.615 637.729C306.025 638.241 312.307 638.754 318.718 638.626C325 638.626 331.41 638.369 332.82 637.985C334.743 637.6 335.384 638.241 335.641 640.291C335.897 642.598 335.897 642.726 335.384 640.676C334.872 638.882 334.102 638.369 332.436 639.01C331.282 639.523 325.641 640.163 320 640.419C312.051 640.804 308.846 640.419 305.897 638.754C303.718 637.6 303.205 637.088 304.615 637.729V637.729ZM299.743 666.303C300 670.147 300 677.067 299.743 681.68C299.487 686.293 299.359 683.089 299.359 674.632C299.231 666.175 299.487 662.459 299.743 666.303ZM46.7947 668.866C46.9229 668.866 44.2305 673.607 40.6408 679.373C36.2818 686.293 29.2305 694.75 20.3844 703.463C8.84594 714.868 6.66645 717.815 5.5126 722.684C4.23055 728.322 4.23055 728.322 3.71773 724.35C3.33312 720.89 4.35876 719.096 9.87158 712.817C13.4613 708.717 19.7434 702.182 23.8459 698.338C27.8203 694.494 34.487 686.293 38.7177 680.014C42.8203 673.863 46.5382 668.866 46.7947 668.866ZM95.6408 675.273C95.8972 675.273 96.2818 678.989 96.2818 683.602C96.2818 690.906 95.769 692.315 93.0767 694.878C91.2818 696.416 87.3075 699.747 84.2305 702.182C81.0254 704.617 77.8203 708.461 76.9229 710.511C76.0254 712.561 73.5895 717.174 71.41 720.506C69.2305 723.837 67.0511 726.272 66.7946 725.887C66.41 725.503 67.0511 724.222 68.3331 723.068C69.487 721.787 70.5126 720.121 70.5126 719.48C70.5126 718.84 71.2818 717.558 72.1793 716.79C73.0767 715.893 74.2305 713.586 74.6152 711.664C75.2562 709.101 78.5895 705.385 94.9998 691.931V683.602C94.9998 678.989 95.2562 675.273 95.6408 675.273V675.273ZM355.897 684.243C356.154 684.243 357.436 686.165 358.589 688.343C359.743 690.65 366.025 697.697 384.102 715.252L372.82 705.257C366.666 699.619 360.128 692.956 358.333 690.265C356.666 687.702 355.256 685.268 355.256 684.883C355.256 684.499 355.513 684.243 355.897 684.243V684.243ZM307.179 701.541L312.692 706.667C315.769 709.486 319.743 714.996 321.538 718.84C323.846 723.581 328.846 729.732 336.923 737.676C344.743 745.621 349.743 749.593 351.666 749.593C353.333 749.593 355.769 748.824 357.179 747.671C358.59 746.646 361.41 745.749 363.59 745.749C365.641 745.749 370.256 744.211 373.846 742.417C377.307 740.623 382.436 737.164 385 734.729C389.102 731.013 389.743 729.731 388.59 722.043L390.256 726.144C391.666 729.988 391.538 730.372 386.666 735.113C383.846 737.804 378.333 741.648 374.487 743.57C370.513 745.364 365.641 747.03 363.59 747.03C361.41 747.03 358.59 747.927 357.179 748.952C355.769 750.105 353.333 750.874 351.666 750.874C349.743 750.874 344.615 746.646 336.154 738.317C327.948 730.116 322.564 723.709 320.641 719.48C318.974 715.893 315.256 710.511 312.436 707.307L307.179 701.541ZM10.3844 731.269C12.8203 733.576 17.6921 736.907 21.2818 738.701C24.7434 740.367 29.1023 741.905 30.8972 741.905C32.6921 742.033 35.5126 742.802 37.3075 743.827C39.1023 744.852 41.6664 745.621 43.0767 745.749C44.487 745.749 48.5895 742.802 52.3075 739.342C56.0254 735.754 59.3588 733.063 59.7434 733.191C60.128 733.448 57.0511 736.523 53.0767 740.239C48.9741 743.955 44.487 746.902 43.0767 746.902C41.6664 746.902 39.1023 746.133 37.3075 745.108C35.5126 744.083 32.6921 743.186 30.8972 743.186C29.1023 743.186 24.487 741.648 20.6408 739.726C16.7947 737.804 12.6921 735.37 11.6664 734.344C10.6408 733.191 8.84594 731.141 7.82029 729.731C6.79465 728.322 7.9485 728.963 10.3844 731.269Z" fill="#ACACAC" fill-opacity="0.9"/>
</svg>
